Rosario-BoldItalic.ufo
<glyph name="quotedbl" format="2">
  <advance width="300"/>
  <unicode hex="0022"/>
  <note>
quotedbl
</note>
  <outline>
    <contour>
      <point x="94" y="449" type="line"/>
      <point x="146" y="559" type="line"/>
      <point x="170" y="732" type="line"/>
      <point x="76" y="732" type="line"/>
      <point x="52" y="559" type="line"/>
      <point x="73" y="449" type="line"/>
    </contour>
    <contour>
      <point x="241" y="449" type="line"/>
      <point x="293" y="559" type="line"/>
      <point x="317" y="732" type="line"/>
      <point x="223" y="732" type="line"/>
      <point x="199" y="559" type="line"/>
      <point x="219" y="449" type="line"/>
    </contour>
  </outline>
</glyph>
<glyph name="percent" format="2">
  <advance width="988"/>
  <unicode hex="0025"/>
  <note>
percent
</note>
  <outline>
    <contour>
      <point x="697" y="732" type="line"/>
      <point x="223" y="0" type="line"/>
      <point x="316" y="0" type="line"/>
      <point x="791" y="732" type="line"/>
    </contour>
    <contour>
      <point x="303" y="732" type="curve" smooth="yes"/>
      <point x="170" y="732"/>
      <point x="87" y="617"/>
      <point x="87" y="476" type="curve" smooth="yes"/>
      <point x="87" y="379"/>
      <point x="135" y="308"/>
      <point x="236" y="308" type="curve" smooth="yes"/>
      <point x="369" y="308"/>
      <point x="451" y="429"/>
      <point x="451" y="572" type="curve" smooth="yes"/>
      <point x="451" y="667"/>
      <point x="405" y="732"/>
    </contour>
    <contour>
      <point x="289" y="658" type="curve" smooth="yes"/>
      <point x="342" y="658"/>
      <point x="356" y="615"/>
      <point x="356" y="568" type="curve" smooth="yes"/>
      <point x="356" y="473"/>
      <point x="325" y="382"/>
      <point x="250" y="382" type="curve" smooth="yes"/>
      <point x="195" y="382"/>
      <point x="181" y="425"/>
      <point x="181" y="472" type="curve" smooth="yes"/>
      <point x="181" y="561"/>
      <point x="216" y="658"/>
    </contour>
    <contour>
      <point x="786" y="414" type="curve" smooth="yes"/>
      <point x="652" y="414"/>
      <point x="571" y="299"/>
      <point x="571" y="156" type="curve" smooth="yes"/>
      <point x="571" y="60"/>
      <point x="619" y="-10"/>
      <point x="719" y="-10" type="curve" smooth="yes"/>
      <point x="852" y="-10"/>
      <point x="935" y="113"/>
      <point x="935" y="252" type="curve" smooth="yes"/>
      <point x="935" y="348"/>
      <point x="888" y="414"/>
    </contour>
    <contour>
      <point x="772" y="340" type="curve" smooth="yes"/>
      <point x="826" y="340"/>
      <point x="839" y="295"/>
      <point x="839" y="248" type="curve" smooth="yes"/>
      <point x="839" y="154"/>
      <point x="809" y="64"/>
      <point x="733" y="64" type="curve" smooth="yes"/>
      <point x="679" y="64"/>
      <point x="665" y="105"/>
      <point x="665" y="152" type="curve" smooth="yes"/>
      <point x="665" y="244"/>
      <point x="698" y="340"/>
    </contour>
    <contour>
      <point x="303" y="732" type="line"/>
      <point x="289" y="658" type="line"/>
      <point x="693" y="658" type="line"/>
      <point x="703" y="732" type="line"/>
    </contour>
  </outline>
</glyph>
<glyph name="parenleft" format="2">
  <advance width="323"/>
  <unicode hex="0028"/>
  <note>
parenleft
</note>
  <outline>
    <contour>
      <point x="379" y="727" type="curve"/>
      <point x="290" y="743" type="line"/>
      <point x="152" y="603"/>
      <point x="45" y="424"/>
      <point x="45" y="222" type="curve" smooth="yes"/>
      <point x="45" y="87"/>
      <point x="94" y="-38"/>
      <point x="172" y="-146" type="curve"/>
      <point x="265" y="-130" type="line"/>
      <point x="196" y="-27"/>
      <point x="157" y="74"/>
      <point x="157" y="199" type="curve" smooth="yes"/>
      <point x="157" y="413"/>
      <point x="236" y="573"/>
    </contour>
  </outline>
</glyph>
<glyph name="asterisk" format="2">
  <advance width="490"/>
  <unicode hex="002A"/>
  <note>
asterisk
</note>
  <outline>
    <contour>
      <point x="246" y="741" type="line"/>
      <point x="253" y="585" type="line"/>
      <point x="311" y="585" type="line"/>
      <point x="357" y="741" type="line"/>
    </contour>
    <contour>
      <point x="311" y="585" type="line"/>
      <point x="321" y="528" type="line"/>
      <point x="481" y="556" type="line"/>
      <point x="456" y="664" type="line"/>
    </contour>
    <contour>
      <point x="124" y="659" type="line"/>
      <point x="79" y="552" type="line"/>
      <point x="228" y="531" type="line"/>
      <point x="253" y="585" type="line"/>
    </contour>
    <contour>
      <point x="228" y="531" type="line"/>
      <point x="101" y="419" type="line"/>
      <point x="180" y="356" type="line"/>
      <point x="270" y="495" type="line"/>
    </contour>
    <contour>
      <point x="270" y="495" type="line"/>
      <point x="321" y="352" type="line"/>
      <point x="420" y="423" type="line"/>
      <point x="321" y="528" type="line"/>
    </contour>
  </outline>
</glyph>
<glyph name="plus" format="2">
  <advance width="642"/>
  <unicode hex="002B"/>
  <note>
plus
</note>
  <outline>
    <contour>
      <point x="325" y="0" type="line"/>
      <point x="354" y="205" type="line"/>
      <point x="559" y="205" type="line"/>
      <point x="571" y="293" type="line"/>
      <point x="366" y="293" type="line"/>
      <point x="395" y="497" type="line"/>
      <point x="307" y="497" type="line"/>
      <point x="278" y="292" type="line"/>
      <point x="73" y="292" type="line"/>
      <point x="61" y="204" type="line"/>
      <point x="266" y="204" type="line"/>
      <point x="237" y="0" type="line"/>
    </contour>
  </outline>
</glyph>
<glyph name="comma" format="2">
  <advance width="235"/>
  <unicode hex="002C"/>
  <note>
comma
</note>
  <outline>
    <contour>
      <point x="181" y="62" type="curve" smooth="yes"/>
      <point x="181" y="104"/>
      <point x="150" y="139"/>
      <point x="104" y="139" type="curve" smooth="yes"/>
      <point x="63" y="139"/>
      <point x="25" y="105"/>
      <point x="25" y="59" type="curve" smooth="yes"/>
      <point x="25" y="14"/>
      <point x="61" y="3"/>
      <point x="61" y="-16" type="curve" smooth="yes"/>
      <point x="61" y="-40"/>
      <point x="23" y="-78"/>
      <point x="5" y="-93" type="curve"/>
      <point x="38" y="-134" type="line"/>
      <point x="101" y="-93"/>
      <point x="181" y="-19"/>
    </contour>
  </outline>
</glyph>
<glyph name="hyphen" format="2">
  <advance width="313"/>
  <unicode hex="002D"/>
  <note>
hyphen
</note>
  <outline>
    <contour>
      <point x="43" y="210" type="line"/>
      <point x="264" y="210" type="line"/>
      <point x="277" y="305" type="line"/>
      <point x="56" y="305" type="line"/>
    </contour>
  </outline>
</glyph>
<glyph name="period" format="2">
  <advance width="215"/>
  <unicode hex="002E"/>
  <note>
period
</note>
  <outline>
    <contour>
      <point x="158" y="76" type="curve" smooth="yes"/>
      <point x="158" y="114"/>
      <point x="129" y="143"/>
      <point x="90" y="143" type="curve" smooth="yes"/>
      <point x="45" y="143"/>
      <point x="1" y="102"/>
      <point x="1" y="54" type="curve" smooth="yes"/>
      <point x="1" y="17"/>
      <point x="30" y="-12"/>
      <point x="68" y="-12" type="curve" smooth="yes"/>
      <point x="115" y="-12"/>
      <point x="158" y="29"/>
    </contour>
  </outline>
</glyph>
<glyph name="two" format="2">
  <advance width="467"/>
  <unicode hex="0032"/>
  <note>
two
</note>
  <guideline x="509" y="512" angle="0"/>
  <guideline x="509" y="421" angle="0"/>
  <outline>
    <contour>
      <point x="285" y="512" type="curve" smooth="yes"/>
      <point x="210" y="512"/>
      <point x="122" y="485"/>
      <point x="53" y="437" type="curve"/>
      <point x="102" y="355" type="line"/>
      <point x="141" y="389"/>
      <point x="205" y="418"/>
      <point x="250" y="418" type="curve" smooth="yes"/>
      <point x="280" y="418"/>
      <point x="301" y="405"/>
      <point x="301" y="373" type="curve" smooth="yes"/>
      <point x="301" y="277"/>
      <point x="144" y="154"/>
      <point x="-1" y="77" type="curve"/>
      <point x="-12" y="0" type="line"/>
      <point x="388" y="0" type="line"/>
      <point x="423" y="99" type="line"/>
      <point x="195" y="99" type="line"/>
      <point x="307" y="167"/>
      <point x="437" y="273"/>
      <point x="437" y="397" type="curve" smooth="yes"/>
      <point x="437" y="477"/>
      <point x="370" y="512"/>
    </contour>
  </outline>
</glyph>
<glyph name="seven" format="2">
  <advance width="451"/>
  <unicode hex="0037"/>
  <note>
seven
</note>
  <outline>
    <contour>
      <point x="72" y="497" type="line"/>
      <point x="25" y="386" type="line"/>
      <point x="339" y="386" type="line"/>
      <point x="-48" y="-189" type="line"/>
      <point x="93" y="-189" type="line"/>
      <point x="465" y="434" type="line"/>
      <point x="474" y="497" type="line"/>
    </contour>
  </outline>
</glyph>
<glyph name="eight" format="2">
  <advance width="490"/>
  <unicode hex="0038"/>
  <note>
eight
</note>
  <outline>
    <contour>
      <point x="320" y="732" type="curve" smooth="yes"/>
      <point x="213" y="732"/>
      <point x="92" y="664"/>
      <point x="92" y="520" type="curve" smooth="yes"/>
      <point x="92" y="440"/>
      <point x="142" y="385"/>
      <point x="196" y="340" type="curve" smooth="yes"/>
      <point x="256" y="291"/>
      <point x="321" y="255"/>
      <point x="321" y="191" type="curve" smooth="yes"/>
      <point x="321" y="129"/>
      <point x="273" y="68"/>
      <point x="206" y="68" type="curve" smooth="yes"/>
      <point x="161" y="68"/>
      <point x="126" y="96"/>
      <point x="126" y="153" type="curve" smooth="yes"/>
      <point x="126" y="211"/>
      <point x="162" y="275"/>
      <point x="239" y="314" type="curve"/>
      <point x="187" y="373" type="line"/>
      <point x="67" y="312"/>
      <point x="15" y="226"/>
      <point x="15" y="146" type="curve" smooth="yes"/>
      <point x="15" y="42"/>
      <point x="104" y="-12"/>
      <point x="204" y="-12" type="curve" smooth="yes"/>
      <point x="341" y="-12"/>
      <point x="455" y="76"/>
      <point x="455" y="218" type="curve" smooth="yes"/>
      <point x="455" y="323"/>
      <point x="378" y="375"/>
      <point x="313" y="428" type="curve" smooth="yes"/>
      <point x="266" y="465"/>
      <point x="223" y="493"/>
      <point x="223" y="547" type="curve" smooth="yes"/>
      <point x="223" y="603"/>
      <point x="260" y="653"/>
      <point x="313" y="653" type="curve" smooth="yes"/>
      <point x="349" y="653"/>
      <point x="372" y="632"/>
      <point x="372" y="588" type="curve" smooth="yes"/>
      <point x="372" y="533"/>
      <point x="337" y="475"/>
      <point x="282" y="446" type="curve"/>
      <point x="334" y="390" type="line"/>
      <point x="434" y="451"/>
      <point x="483" y="529"/>
      <point x="483" y="601" type="curve" smooth="yes"/>
      <point x="483" y="688"/>
      <point x="406" y="732"/>
    </contour>
  </outline>
</glyph>
<glyph name="semicolon" format="2">
  <advance width="253"/>
  <unicode hex="003B"/>
  <note>
semicolon
</note>
  <outline>
    <contour>
      <point x="224" y="365" type="curve" smooth="yes"/>
      <point x="224" y="402"/>
      <point x="195" y="431"/>
      <point x="157" y="431" type="curve" smooth="yes"/>
      <point x="110" y="431"/>
      <point x="67" y="390"/>
      <point x="67" y="343" type="curve" smooth="yes"/>
      <point x="67" y="305"/>
      <point x="96" y="276"/>
      <point x="135" y="276" type="curve" smooth="yes"/>
      <point x="180" y="276"/>
      <point x="224" y="317"/>
    </contour>
    <contour>
      <point x="104" y="139" type="curve" smooth="yes"/>
      <point x="63" y="139"/>
      <point x="25" y="105"/>
      <point x="25" y="59" type="curve" smooth="yes"/>
      <point x="25" y="14"/>
      <point x="61" y="3"/>
      <point x="61" y="-16" type="curve" smooth="yes"/>
      <point x="61" y="-40"/>
      <point x="23" y="-78"/>
      <point x="5" y="-93" type="curve"/>
      <point x="38" y="-134" type="line"/>
      <point x="101" y="-93"/>
      <point x="181" y="-19"/>
      <point x="181" y="62" type="curve" smooth="yes"/>
      <point x="181" y="104"/>
      <point x="150" y="139"/>
    </contour>
  </outline>
</glyph>
<glyph name="question" format="2">
  <advance width="439"/>
  <unicode hex="003F"/>
  <note>
question
</note>
  <outline>
    <contour>
      <point x="288" y="732" type="curve" smooth="yes"/>
      <point x="240" y="732"/>
      <point x="185" y="719"/>
      <point x="130" y="694" type="curve"/>
      <point x="166" y="600" type="line"/>
      <point x="197" y="616"/>
      <point x="227" y="624"/>
      <point x="253" y="624" type="curve" smooth="yes"/>
      <point x="291" y="624"/>
      <point x="318" y="606"/>
      <point x="318" y="568" type="curve" smooth="yes"/>
      <point x="318" y="525"/>
      <point x="278" y="496"/>
      <point x="233" y="465" type="curve" smooth="yes"/>
      <point x="175" y="427"/>
      <point x="110" y="386"/>
      <point x="110" y="310" type="curve" smooth="yes"/>
      <point x="110" y="271"/>
      <point x="132" y="211"/>
      <point x="243" y="200" type="curve"/>
      <point x="277" y="278" type="line"/>
      <point x="231" y="278"/>
      <point x="224" y="307"/>
      <point x="224" y="318" type="curve" smooth="yes"/>
      <point x="224" y="349"/>
      <point x="255" y="371"/>
      <point x="295" y="395" type="curve" smooth="yes"/>
      <point x="361" y="436"/>
      <point x="449" y="485"/>
      <point x="449" y="593" type="curve" smooth="yes"/>
      <point x="449" y="685"/>
      <point x="381" y="732"/>
    </contour>
    <contour>
      <point x="171" y="143" type="curve" smooth="yes"/>
      <point x="124" y="143"/>
      <point x="82" y="102"/>
      <point x="82" y="54" type="curve" smooth="yes"/>
      <point x="82" y="17"/>
      <point x="110" y="-12"/>
      <point x="149" y="-12" type="curve" smooth="yes"/>
      <point x="196" y="-12"/>
      <point x="238" y="29"/>
      <point x="238" y="76" type="curve" smooth="yes"/>
      <point x="238" y="114"/>
      <point x="210" y="143"/>
    </contour>
  </outline>
</glyph>
<glyph name="A" format="2">
  <advance width="585"/>
  <unicode hex="0041"/>
  <note>
A
</note>
  <anchor x="237" y="0" name="bottom"/>
  <anchor x="436" y="0" name="ogonek"/>
  <anchor x="340" y="732" name="top"/>
  <outline>
    <contour>
      <point x="397" y="732" type="line"/>
      <point x="289" y="732" type="line"/>
      <point x="-55" y="0" type="line"/>
      <point x="69" y="0" type="line"/>
      <point x="166" y="210" type="line"/>
      <point x="366" y="210" type="line"/>
      <point x="405" y="0" type="line"/>
      <point x="545" y="0" type="line"/>
    </contour>
    <contour>
      <point x="309" y="558" type="line"/>
      <point x="349" y="308" type="line"/>
      <point x="206" y="308" type="line"/>
    </contour>
  </outline>
</glyph>
<glyph name="E" format="2">
  <advance width="507"/>
  <unicode hex="0045"/>
  <note>
E
</note>
  <anchor x="252" y="0" name="bottom"/>
  <anchor x="343" y="0" name="ogonek"/>
  <anchor x="321" y="732" name="top"/>
  <outline>
    <contour>
      <point x="94" y="732" type="line"/>
      <point x="101" y="671" type="line"/>
      <point x="11" y="0" type="line"/>
      <point x="434" y="0" type="line"/>
      <point x="447" y="99" type="line"/>
      <point x="155" y="99" type="line"/>
      <point x="185" y="327" type="line"/>
      <point x="409" y="327" type="line"/>
      <point x="422" y="426" type="line"/>
      <point x="198" y="426" type="line"/>
      <point x="226" y="633" type="line"/>
      <point x="519" y="633" type="line"/>
      <point x="532" y="732" type="line"/>
    </contour>
  </outline>
</glyph>
<glyph name="H" format="2">
  <advance width="674"/>
  <unicode hex="0048"/>
  <note>
H
</note>
  <anchor x="272" y="0" name="bottom"/>
  <anchor x="357" y="558" name="center"/>
  <anchor x="376" y="732" name="top"/>
  <outline>
    <contour>
      <point x="433" y="0" type="line"/>
      <point x="565" y="0" type="line"/>
      <point x="663" y="732" type="line"/>
      <point x="531" y="732" type="line"/>
      <point x="490" y="426" type="line"/>
      <point x="198" y="426" type="line"/>
      <point x="239" y="732" type="line"/>
      <point x="95" y="732" type="line"/>
      <point x="101" y="671" type="line"/>
      <point x="11" y="0" type="line"/>
      <point x="142" y="0" type="line"/>
      <point x="185" y="327" type="line"/>
      <point x="477" y="327" type="line"/>
    </contour>
  </outline>
</glyph>
<glyph name="J" format="2">
  <advance width="254"/>
  <unicode hex="004A"/>
  <note>
J
</note>
  <anchor x="172" y="732" name="top"/>
  <outline>
    <contour>
      <point x="99" y="732" type="line"/>
      <point x="105" y="671" type="line"/>
      <point x="21" y="47" type="line" smooth="yes"/>
      <point x="10" y="-34"/>
      <point x="-10" y="-119"/>
      <point x="-109" y="-131" type="curve"/>
      <point x="-108" y="-209" type="line"/>
      <point x="90" y="-200"/>
      <point x="137" y="-70"/>
      <point x="159" y="98" type="curve" smooth="yes"/>
      <point x="243" y="732" type="line"/>
    </contour>
  </outline>
</glyph>
<glyph name="K" format="2">
  <advance width="558"/>
  <unicode hex="004B"/>
  <note>
K
</note>
  <anchor x="243" y="0" name="bottom"/>
  <outline>
    <contour>
      <point x="239" y="732" type="line"/>
      <point x="95" y="732" type="line"/>
      <point x="101" y="671" type="line"/>
      <point x="11" y="0" type="line"/>
      <point x="142" y="0" type="line"/>
    </contour>
    <contour>
      <point x="452" y="732" type="line"/>
      <point x="228" y="380" type="line"/>
      <point x="366" y="0" type="line"/>
      <point x="507" y="0" type="line"/>
      <point x="363" y="391" type="line"/>
      <point x="585" y="732" type="line"/>
    </contour>
  </outline>
</glyph>
<glyph name="M" format="2">
  <advance width="830"/>
  <unicode hex="004D"/>
  <note>
M
</note>
  <outline>
    <contour>
      <point x="287" y="732" type="line"/>
      <point x="95" y="732" type="line"/>
      <point x="100" y="671" type="line"/>
      <point x="11" y="0" type="line"/>
      <point x="120" y="0" type="line"/>
      <point x="187" y="496" type="line" smooth="yes"/>
      <point x="190" y="520"/>
      <point x="190" y="545"/>
      <point x="191" y="568" type="curve"/>
      <point x="194" y="539"/>
      <point x="203" y="505"/>
      <point x="205" y="496" type="curve" smooth="yes"/>
      <point x="314" y="-1" type="line"/>
      <point x="402" y="-1" type="line"/>
      <point x="638" y="496" type="line" smooth="yes"/>
      <point x="650" y="520"/>
      <point x="660" y="544"/>
      <point x="670" y="568" type="curve"/>
      <point x="666" y="545"/>
      <point x="659" y="520"/>
      <point x="656" y="496" type="curve" smooth="yes"/>
      <point x="590" y="0" type="line"/>
      <point x="721" y="0" type="line"/>
      <point x="819" y="732" type="line"/>
      <point x="632" y="732" type="line"/>
      <point x="432" y="307" type="line" smooth="yes"/>
      <point x="414" y="270"/>
      <point x="403" y="234"/>
      <point x="390" y="190" type="curve"/>
      <point x="388" y="231"/>
      <point x="388" y="271"/>
      <point x="379" y="311" type="curve" smooth="yes"/>
    </contour>
  </outline>
</glyph>
<glyph name="N" format="2">
  <advance width="682"/>
  <unicode hex="004E"/>
  <note>
N
</note>
  <anchor x="301" y="0" name="bottom"/>
  <anchor x="389" y="732" name="top"/>
  <outline>
    <contour>
      <point x="254" y="732" type="line"/>
      <point x="95" y="732" type="line"/>
      <point x="100" y="671" type="line"/>
      <point x="11" y="0" type="line"/>
      <point x="119" y="0" type="line"/>
      <point x="186" y="497" type="line" smooth="yes"/>
      <point x="189" y="518"/>
      <point x="188" y="542"/>
      <point x="189" y="564" type="curve"/>
      <point x="199" y="542"/>
      <point x="209" y="519"/>
      <point x="220" y="497" type="curve" smooth="yes"/>
      <point x="465" y="-5" type="line"/>
      <point x="572" y="-5" type="line"/>
      <point x="671" y="732" type="line"/>
      <point x="560" y="732" type="line"/>
      <point x="503" y="304" type="line" smooth="yes"/>
      <point x="500" y="279"/>
      <point x="501" y="252"/>
      <point x="499" y="227" type="curve"/>
      <point x="487" y="254"/>
      <point x="477" y="279"/>
      <point x="470" y="293" type="curve" smooth="yes"/>
    </contour>
  </outline>
</glyph>
<glyph name="O" format="2">
  <advance width="707"/>
  <unicode hex="004F"/>
  <note>
O
</note>
  <anchor x="317" y="0" name="bottom"/>
  <anchor x="354" y="363" name="center"/>
  <anchor x="350" y="0" name="ogonek"/>
  <anchor x="405" y="732" name="top"/>
  <anchor x="437" y="732" name="topright"/>
  <outline>
    <contour>
      <point x="300" y="-11" type="curve" smooth="yes"/>
      <point x="549" y="-11"/>
      <point x="690" y="209"/>
      <point x="690" y="439" type="curve" smooth="yes"/>
      <point x="690" y="622"/>
      <point x="590" y="743"/>
      <point x="401" y="743" type="curve" smooth="yes"/>
      <point x="154" y="743"/>
      <point x="17" y="523"/>
      <point x="17" y="295" type="curve" smooth="yes"/>
      <point x="17" y="117"/>
      <point x="113" y="-11"/>
    </contour>
    <contour>
      <point x="316" y="84" type="curve" smooth="yes"/>
      <point x="192" y="84"/>
      <point x="157" y="193"/>
      <point x="157" y="298" type="curve" smooth="yes"/>
      <point x="157" y="439"/>
      <point x="216" y="648"/>
      <point x="390" y="648" type="curve" smooth="yes"/>
      <point x="514" y="648"/>
      <point x="549" y="540"/>
      <point x="549" y="434" type="curve" smooth="yes"/>
      <point x="549" y="293"/>
      <point x="491" y="84"/>
    </contour>
  </outline>
</glyph>
<glyph name="P" format="2">
  <advance width="539"/>
  <unicode hex="0050"/>
  <note>
P
</note>
  <outline>
    <contour>
      <point x="95" y="732" type="line"/>
      <point x="101" y="671" type="line"/>
      <point x="11" y="0" type="line"/>
      <point x="142" y="0" type="line"/>
      <point x="181" y="294" type="line"/>
      <point x="258" y="294" type="line" smooth="yes"/>
      <point x="417" y="294"/>
      <point x="541" y="374"/>
      <point x="541" y="541" type="curve" smooth="yes"/>
      <point x="541" y="678"/>
      <point x="435" y="732"/>
      <point x="316" y="732" type="curve" smooth="yes"/>
    </contour>
    <contour>
      <point x="227" y="633" type="line"/>
      <point x="308" y="633" type="line" smooth="yes"/>
      <point x="369" y="633"/>
      <point x="402" y="599"/>
      <point x="402" y="538" type="curve" smooth="yes"/>
      <point x="402" y="462"/>
      <point x="357" y="391"/>
      <point x="275" y="391" type="curve" smooth="yes"/>
      <point x="195" y="391" type="line"/>
    </contour>
  </outline>
</glyph>
<glyph name="Q" format="2">
  <advance width="707"/>
  <unicode hex="0051"/>
  <note>
Q
</note>
  <outline>
    <contour>
      <point x="1070" y="-160" type="curve"/>
      <point x="1046" y="-87" type="line"/>
      <point x="998" y="-101"/>
      <point x="915" y="-122"/>
      <point x="866" y="-122" type="curve" smooth="yes"/>
      <point x="752" y="-122"/>
      <point x="608" y="-47"/>
      <point x="500" y="9" type="curve" smooth="yes"/>
      <point x="486" y="16"/>
      <point x="473" y="22"/>
      <point x="459" y="27" type="curve"/>
      <point x="618" y="105"/>
      <point x="690" y="271"/>
      <point x="690" y="433" type="curve" smooth="yes"/>
      <point x="690" y="612"/>
      <point x="594" y="744"/>
      <point x="405" y="744" type="curve" smooth="yes"/>
      <point x="156" y="744"/>
      <point x="17" y="518"/>
      <point x="17" y="290" type="curve" smooth="yes"/>
      <point x="17" y="136"/>
      <point x="86" y="29"/>
      <point x="240" y="-8" type="curve" smooth="yes"/>
      <point x="280" y="-18"/>
      <point x="319" y="-24"/>
      <point x="357" y="-42" type="curve" smooth="yes"/>
      <point x="492" y="-105"/>
      <point x="662" y="-216"/>
      <point x="814" y="-216" type="curve" smooth="yes"/>
      <point x="910" y="-216"/>
      <point x="983" y="-191"/>
    </contour>
    <contour>
      <point x="317" y="85" type="curve" smooth="yes"/>
      <point x="195" y="85"/>
      <point x="158" y="193"/>
      <point x="158" y="297" type="curve" smooth="yes"/>
      <point x="158" y="434"/>
      <point x="223" y="648"/>
      <point x="392" y="648" type="curve" smooth="yes"/>
      <point x="515" y="648"/>
      <point x="551" y="536"/>
      <point x="551" y="432" type="curve" smooth="yes"/>
      <point x="551" y="292"/>
      <point x="488" y="85"/>
    </contour>
  </outline>
</glyph>
<glyph name="S" format="2">
  <advance width="495"/>
  <unicode hex="0053"/>
  <note>
S
</note>
  <anchor x="214" y="0" name="bottom"/>
  <anchor x="311" y="732" name="top"/>
  <outline>
    <contour>
      <point x="333" y="744" type="curve" smooth="yes"/>
      <point x="185" y="744"/>
      <point x="54" y="676"/>
      <point x="54" y="514" type="curve" smooth="yes"/>
      <point x="54" y="326"/>
      <point x="317" y="336"/>
      <point x="317" y="204" type="curve" smooth="yes"/>
      <point x="317" y="131"/>
      <point x="253" y="84"/>
      <point x="184" y="84" type="curve" smooth="yes"/>
      <point x="124" y="84"/>
      <point x="67" y="113"/>
      <point x="27" y="157" type="curve"/>
      <point x="-36" y="49" type="line"/>
      <point x="27" y="6"/>
      <point x="108" y="-12"/>
      <point x="183" y="-12" type="curve" smooth="yes"/>
      <point x="332" y="-12"/>
      <point x="460" y="85"/>
      <point x="460" y="240" type="curve" smooth="yes"/>
      <point x="460" y="434"/>
      <point x="198" y="423"/>
      <point x="198" y="550" type="curve" smooth="yes"/>
      <point x="198" y="612"/>
      <point x="250" y="648"/>
      <point x="307" y="648" type="curve" smooth="yes"/>
      <point x="352" y="648"/>
      <point x="419" y="625"/>
      <point x="450" y="592" type="curve"/>
      <point x="509" y="684" type="line"/>
      <point x="470" y="719"/>
      <point x="385" y="744"/>
    </contour>
  </outline>
</glyph>
<glyph name="T" format="2">
  <advance width="523"/>
  <unicode hex="0054"/>
  <note>
T
</note>
  <anchor x="205" y="0" name="bottom"/>
  <anchor x="257" y="366" name="center"/>
  <anchor x="307" y="732" name="top"/>
  <outline>
    <contour>
      <point x="43" y="732" type="line"/>
      <point x="30" y="633" type="line"/>
      <point x="222" y="633" type="line"/>
      <point x="138" y="0" type="line"/>
      <point x="274" y="0" type="line"/>
      <point x="359" y="633" type="line"/>
      <point x="554" y="633" type="line"/>
      <point x="568" y="732" type="line"/>
    </contour>
  </outline>
</glyph>
<glyph name="V" format="2">
  <advance width="561"/>
  <unicode hex="0056"/>
  <note>
V
</note>
  <outline>
    <contour>
      <point x="174" y="732" type="curve"/>
      <point x="35" y="732" type="line"/>
      <point x="176" y="-1" type="line"/>
      <point x="278" y="-1" type="line"/>
      <point x="616" y="732" type="line"/>
      <point x="492" y="732" type="line"/>
      <point x="416" y="555"/>
      <point x="319" y="377"/>
      <point x="264" y="200" type="curve"/>
      <point x="247" y="377"/>
      <point x="204" y="555"/>
    </contour>
  </outline>
</glyph>
<glyph name="X" format="2">
  <advance width="566"/>
  <unicode hex="0058"/>
  <note>
X
</note>
  <outline>
    <contour>
      <point x="471" y="732" type="line"/>
      <point x="-50" y="0" type="line"/>
      <point x="96" y="0" type="line"/>
      <point x="616" y="732" type="line"/>
    </contour>
    <contour>
      <point x="221" y="732" type="line"/>
      <point x="70" y="732" type="line"/>
      <point x="386" y="0" type="line"/>
      <point x="537" y="0" type="line"/>
    </contour>
  </outline>
</glyph>
<glyph name="bracketleft" format="2">
  <advance width="315"/>
  <unicode hex="005B"/>
  <note>
bracketleft
</note>
  <outline>
    <contour>
      <point x="241" y="673" type="line"/>
      <point x="335" y="673" type="line"/>
      <point x="343" y="732" type="line"/>
      <point x="136" y="732" type="line"/>
      <point x="20" y="-132" type="line"/>
      <point x="227" y="-132" type="line"/>
      <point x="235" y="-73" type="line"/>
      <point x="141" y="-73" type="line"/>
    </contour>
  </outline>
</glyph>
<glyph name="asciicircum" format="2">
  <advance width="618"/>
  <unicode hex="005E"/>
  <note>
asciicircum
</note>
  <outline>
    <contour>
      <point x="326" y="368" type="line"/>
      <point x="444" y="0" type="line"/>
      <point x="535" y="0" type="line"/>
      <point x="370" y="498" type="line"/>
      <point x="318" y="498" type="line"/>
      <point x="13" y="0" type="line"/>
      <point x="101" y="0" type="line"/>
    </contour>
  </outline>
</glyph>
<glyph name="a" format="2">
  <advance width="513"/>
  <unicode hex="0061"/>
  <note>
a
</note>
  <guideline x="15" y="417" angle="90"/>
  <guideline x="132" y="417" angle="90"/>
  <anchor x="212" y="0" name="bottom"/>
  <anchor x="423" y="0" name="ogonek"/>
  <anchor x="292" y="497" name="top"/>
  <outline>
    <contour>
      <point x="421" y="500" type="line"/>
      <point x="359" y="407" type="line"/>
      <point x="348" y="334" type="line" smooth="yes"/>
      <point x="328" y="204"/>
      <point x="294" y="70"/>
      <point x="209" y="70" type="curve" smooth="yes"/>
      <point x="157" y="70"/>
      <point x="138" y="132"/>
      <point x="138" y="204" type="curve" smooth="yes"/>
      <point x="138" y="340"/>
      <point x="195" y="427"/>
      <point x="280" y="427" type="curve" smooth="yes"/>
      <point x="320" y="427"/>
      <point x="360" y="407"/>
      <point x="406" y="365" type="curve"/>
      <point x="406" y="450" type="line"/>
      <point x="370" y="494"/>
      <point x="309" y="509"/>
      <point x="274" y="509" type="curve" smooth="yes"/>
      <point x="104" y="509"/>
      <point x="21" y="347"/>
      <point x="21" y="201" type="curve" smooth="yes"/>
      <point x="21" y="87"/>
      <point x="69" y="-12"/>
      <point x="186" y="-12" type="curve" smooth="yes"/>
      <point x="229" y="-12"/>
      <point x="287" y="7"/>
      <point x="326" y="59" type="curve"/>
      <point x="330" y="59" type="line"/>
      <point x="338" y="20"/>
      <point x="372" y="-9"/>
      <point x="412" y="-9" type="curve" smooth="yes"/>
      <point x="446" y="-9"/>
      <point x="489" y="3"/>
      <point x="518" y="22" type="curve"/>
      <point x="501" y="85" type="line"/>
      <point x="488" y="80"/>
      <point x="466" y="73"/>
      <point x="453" y="73" type="curve" smooth="yes"/>
      <point x="433" y="73"/>
      <point x="428" y="92"/>
      <point x="428" y="109" type="curve" smooth="yes"/>
      <point x="428" y="136"/>
      <point x="433" y="161"/>
      <point x="484" y="500" type="curve"/>
    </contour>
  </outline>
</glyph>
<glyph name="d" format="2">
  <advance width="517"/>
  <unicode hex="0064"/>
  <note>
d
</note>
  <anchor x="408" y="636" name="center"/>
  <anchor x="358" y="531" name="topright"/>
  <outline>
    <contour>
      <point x="400" y="714" type="line"/>
      <point x="348" y="334" type="line" smooth="yes"/>
      <point x="330" y="204"/>
      <point x="294" y="70"/>
      <point x="209" y="70" type="curve" smooth="yes"/>
      <point x="157" y="70"/>
      <point x="138" y="132"/>
      <point x="138" y="204" type="curve" smooth="yes"/>
      <point x="138" y="340"/>
      <point x="195" y="427"/>
      <point x="280" y="427" type="curve" smooth="yes"/>
      <point x="320" y="427"/>
      <point x="360" y="407"/>
      <point x="406" y="365" type="curve"/>
      <point x="406" y="450" type="line"/>
      <point x="370" y="494"/>
      <point x="309" y="509"/>
      <point x="274" y="509" type="curve" smooth="yes"/>
      <point x="104" y="509"/>
      <point x="21" y="347"/>
      <point x="21" y="201" type="curve" smooth="yes"/>
      <point x="21" y="87"/>
      <point x="69" y="-12"/>
      <point x="186" y="-12" type="curve" smooth="yes"/>
      <point x="229" y="-12"/>
      <point x="287" y="7"/>
      <point x="326" y="59" type="curve"/>
      <point x="330" y="59" type="line"/>
      <point x="338" y="20"/>
      <point x="372" y="-9"/>
      <point x="412" y="-9" type="curve" smooth="yes"/>
      <point x="446" y="-9"/>
      <point x="489" y="3"/>
      <point x="518" y="22" type="curve"/>
      <point x="501" y="85" type="line"/>
      <point x="488" y="80"/>
      <point x="466" y="73"/>
      <point x="453" y="73" type="curve" smooth="yes"/>
      <point x="433" y="73"/>
      <point x="428" y="92"/>
      <point x="428" y="104" type="curve" smooth="yes"/>
      <point x="428" y="136"/>
      <point x="471" y="421"/>
      <point x="522" y="769" type="curve"/>
      <point x="395" y="769" type="line"/>
    </contour>
  </outline>
</glyph>
<glyph name="g" format="2">
  <advance width="491"/>
  <unicode hex="0067"/>
  <note>
g
</note>
  <anchor x="286" y="497" name="top"/>
  <outline>
    <contour>
      <point x="421" y="500" type="line"/>
      <point x="359" y="407" type="line"/>
      <point x="348" y="334" type="line" smooth="yes"/>
      <point x="328" y="204"/>
      <point x="294" y="70"/>
      <point x="209" y="70" type="curve" smooth="yes"/>
      <point x="157" y="70"/>
      <point x="138" y="132"/>
      <point x="138" y="204" type="curve" smooth="yes"/>
      <point x="138" y="340"/>
      <point x="195" y="427"/>
      <point x="280" y="427" type="curve" smooth="yes"/>
      <point x="320" y="427"/>
      <point x="360" y="407"/>
      <point x="406" y="365" type="curve"/>
      <point x="406" y="450" type="line"/>
      <point x="370" y="494"/>
      <point x="309" y="509"/>
      <point x="274" y="509" type="curve" smooth="yes"/>
      <point x="104" y="509"/>
      <point x="21" y="347"/>
      <point x="21" y="201" type="curve" smooth="yes"/>
      <point x="21" y="87"/>
      <point x="69" y="-12"/>
      <point x="186" y="-12" type="curve" smooth="yes"/>
      <point x="229" y="-12"/>
      <point x="271" y="4"/>
      <point x="301" y="33" type="curve"/>
      <point x="305" y="33" type="line"/>
      <point x="298" y="-8" type="line" smooth="yes"/>
      <point x="285" y="-87"/>
      <point x="259" y="-140"/>
      <point x="163" y="-140" type="curve" smooth="yes"/>
      <point x="106" y="-140"/>
      <point x="70" y="-108"/>
      <point x="49" y="-83" type="curve"/>
      <point x="-12" y="-174" type="line"/>
      <point x="16" y="-200"/>
      <point x="78" y="-230"/>
      <point x="163" y="-230" type="curve" smooth="yes"/>
      <point x="353" y="-230"/>
      <point x="400" y="-85"/>
      <point x="418" y="40" type="curve" smooth="yes"/>
      <point x="484" y="500" type="line"/>
    </contour>
  </outline>
</glyph>
<glyph name="h" format="2">
  <advance width="491"/>
  <unicode hex="0068"/>
  <note>
h
</note>
  <anchor x="223" y="0" name="bottom"/>
  <anchor x="210" y="607" name="center"/>
  <anchor x="176" y="732" name="top"/>
  <outline>
    <contour>
      <point x="244" y="769" type="line"/>
      <point x="118" y="769" type="line"/>
      <point x="122" y="715" type="line"/>
      <point x="27" y="0" type="line"/>
      <point x="141" y="0" type="line"/>
      <point x="189" y="357" type="line"/>
      <point x="210" y="378"/>
      <point x="268" y="414"/>
      <point x="299" y="414" type="curve" smooth="yes"/>
      <point x="336" y="414"/>
      <point x="349" y="395"/>
      <point x="349" y="360" type="curve" smooth="yes"/>
      <point x="349" y="348"/>
      <point x="348" y="336"/>
      <point x="346" y="324" type="curve" smooth="yes"/>
      <point x="302" y="0" type="line"/>
      <point x="428" y="0" type="line"/>
      <point x="425" y="54" type="line"/>
      <point x="463" y="336" type="line" smooth="yes"/>
      <point x="465" y="352"/>
      <point x="466" y="370"/>
      <point x="466" y="387" type="curve" smooth="yes"/>
      <point x="466" y="469"/>
      <point x="429" y="511"/>
      <point x="345" y="511" type="curve" smooth="yes"/>
      <point x="294" y="511"/>
      <point x="241" y="483"/>
      <point x="200" y="451" type="curve"/>
    </contour>
  </outline>
</glyph>
<glyph name="i" format="2">
  <advance width="228"/>
  <unicode hex="0069"/>
  <note>
i
</note>
  <anchor x="105" y="0" name="bottom"/>
  <anchor x="91" y="0" name="ogonek"/>
  <outline>
    <contour>
      <point x="248" y="689" type="curve" smooth="yes"/>
      <point x="248" y="725"/>
      <point x="223" y="754"/>
      <point x="186" y="754" type="curve" smooth="yes"/>
      <point x="140" y="754"/>
      <point x="102" y="712"/>
      <point x="102" y="667" type="curve" smooth="yes"/>
      <point x="102" y="631"/>
      <point x="128" y="601"/>
      <point x="165" y="601" type="curve" smooth="yes"/>
      <point x="211" y="601"/>
      <point x="248" y="645"/>
    </contour>
    <contour>
      <point x="207" y="497" type="line"/>
      <point x="83" y="497" type="line"/>
      <point x="86" y="443" type="line"/>
      <point x="27" y="0" type="line"/>
      <point x="151" y="0" type="line"/>
      <point x="148" y="55" type="line"/>
    </contour>
  </outline>
</glyph>
<glyph name="l" format="2">
  <advance width="236"/>
  <unicode hex="006C"/>
  <note>
l
</note>
  <anchor x="82" y="0" name="bottom"/>
  <anchor x="137" y="391" name="center"/>
  <anchor x="181" y="728" name="top"/>
  <anchor x="75" y="529" name="topright"/>
  <outline>
    <contour>
      <point x="247" y="769" type="line"/>
      <point x="119" y="769" type="line"/>
      <point x="122" y="715" type="line"/>
      <point x="27" y="0" type="line"/>
      <point x="154" y="0" type="line"/>
      <point x="151" y="54" type="line"/>
    </contour>
  </outline>
</glyph>
<glyph name="n" format="2">
  <advance width="492"/>
  <unicode hex="006E"/>
  <note>
n
</note>
  <anchor x="225" y="0" name="bottom"/>
  <anchor x="288" y="497" name="top"/>
  <anchor x="106" y="497" name="topright"/>
  <outline>
    <contour>
      <point x="185" y="508" type="curve"/>
      <point x="64" y="493" type="line"/>
      <point x="77" y="473"/>
      <point x="78" y="437"/>
      <point x="78" y="414" type="curve" smooth="yes"/>
      <point x="78" y="394"/>
      <point x="77" y="375"/>
      <point x="75" y="356" type="curve" smooth="yes"/>
      <point x="27" y="0" type="line"/>
      <point x="141" y="0" type="line"/>
      <point x="190" y="357" type="line"/>
      <point x="211" y="378"/>
      <point x="269" y="414"/>
      <point x="300" y="414" type="curve" smooth="yes"/>
      <point x="337" y="414"/>
      <point x="350" y="395"/>
      <point x="350" y="360" type="curve" smooth="yes"/>
      <point x="350" y="348"/>
      <point x="349" y="336"/>
      <point x="347" y="324" type="curve" smooth="yes"/>
      <point x="304" y="0" type="line"/>
      <point x="429" y="0" type="line"/>
      <point x="426" y="54" type="line"/>
      <point x="464" y="336" type="line" smooth="yes"/>
      <point x="466" y="352"/>
      <point x="467" y="370"/>
      <point x="467" y="387" type="curve" smooth="yes"/>
      <point x="467" y="469"/>
      <point x="430" y="511"/>
      <point x="346" y="511" type="curve" smooth="yes"/>
      <point x="292" y="511"/>
      <point x="234" y="479"/>
      <point x="193" y="445" type="curve"/>
      <point x="193" y="466"/>
      <point x="191" y="487"/>
    </contour>
  </outline>
</glyph>
<glyph name="o" format="2">
  <advance width="496"/>
  <unicode hex="006F"/>
  <note>
o
</note>
  <anchor x="215" y="0" name="bottom"/>
  <anchor x="248" y="252" name="center"/>
  <anchor x="237" y="0" name="ogonek"/>
  <anchor x="282" y="497" name="top"/>
  <anchor x="310" y="497" name="topright"/>
  <outline>
    <contour>
      <point x="213" y="-12" type="curve" smooth="yes"/>
      <point x="381" y="-12"/>
      <point x="475" y="152"/>
      <point x="475" y="297" type="curve" smooth="yes"/>
      <point x="475" y="409"/>
      <point x="420" y="510"/>
      <point x="283" y="510" type="curve" smooth="yes"/>
      <point x="115" y="510"/>
      <point x="21" y="346"/>
      <point x="21" y="201" type="curve" smooth="yes"/>
      <point x="21" y="89"/>
      <point x="76" y="-12"/>
    </contour>
    <contour>
      <point x="224" y="69" type="curve" smooth="yes"/>
      <point x="159" y="69"/>
      <point x="138" y="129"/>
      <point x="138" y="200" type="curve" smooth="yes"/>
      <point x="138" y="308"/>
      <point x="184" y="429"/>
      <point x="272" y="429" type="curve" smooth="yes"/>
      <point x="337" y="429"/>
      <point x="358" y="369"/>
      <point x="358" y="298" type="curve" smooth="yes"/>
      <point x="358" y="190"/>
      <point x="312" y="69"/>
    </contour>
  </outline>
</glyph>
<glyph name="p" format="2">
  <advance width="512"/>
  <unicode hex="0070"/>
  <note>
p
</note>
  <outline>
    <contour>
      <point x="331" y="511" type="curve" smooth="yes"/>
      <point x="278" y="511"/>
      <point x="230" y="486"/>
      <point x="194" y="450" type="curve"/>
      <point x="193" y="470"/>
      <point x="190" y="487"/>
      <point x="184" y="507" type="curve"/>
      <point x="67" y="492" type="line"/>
      <point x="78" y="470"/>
      <point x="80" y="438"/>
      <point x="80" y="413" type="curve" smooth="yes"/>
      <point x="80" y="394"/>
      <point x="79" y="375"/>
      <point x="76" y="356" type="curve" smooth="yes"/>
      <point x="-2" y="-225" type="line"/>
      <point x="125" y="-225" type="line"/>
      <point x="120" y="-170" type="line"/>
      <point x="142" y="-1" type="line"/>
      <point x="165" y="-7"/>
      <point x="196" y="-12"/>
      <point x="228" y="-12" type="curve" smooth="yes"/>
      <point x="410" y="-12"/>
      <point x="491" y="147"/>
      <point x="491" y="299" type="curve" smooth="yes"/>
      <point x="491" y="418"/>
      <point x="445" y="511"/>
    </contour>
    <contour>
      <point x="301" y="422" type="curve" smooth="yes"/>
      <point x="356" y="422"/>
      <point x="374" y="368"/>
      <point x="374" y="293" type="curve" smooth="yes"/>
      <point x="374" y="188"/>
      <point x="330" y="70"/>
      <point x="232" y="70" type="curve" smooth="yes"/>
      <point x="201" y="70"/>
      <point x="178" y="78"/>
      <point x="154" y="91" type="curve"/>
      <point x="190" y="353" type="line"/>
      <point x="207" y="377"/>
      <point x="257" y="422"/>
    </contour>
  </outline>
</glyph>
<glyph name="v" format="2">
  <advance width="419"/>
  <unicode hex="0076"/>
  <note>
v
</note>
  <outline>
    <contour>
      <point x="137" y="497" type="curve"/>
      <point x="15" y="497" type="line"/>
      <point x="121" y="-4" type="line"/>
      <point x="227" y="-4" type="line"/>
      <point x="459" y="497" type="line"/>
      <point x="342" y="497" type="line"/>
      <point x="244" y="278"/>
      <point x="227" y="246"/>
      <point x="200" y="151" type="curve"/>
      <point x="195" y="218"/>
      <point x="187" y="262"/>
    </contour>
  </outline>
</glyph>
<glyph name="x" format="2">
  <advance width="464"/>
  <unicode hex="0078"/>
  <note>
x
</note>
  <outline>
    <contour>
      <point x="199" y="497" type="line"/>
      <point x="67" y="497" type="line"/>
      <point x="306" y="0" type="line"/>
      <point x="439" y="0" type="line"/>
    </contour>
    <contour>
      <point x="351" y="497" type="line"/>
      <point x="-20" y="0" type="line"/>
      <point x="114" y="0" type="line"/>
      <point x="484" y="497" type="line"/>
    </contour>
  </outline>
</glyph>
<glyph name="z" format="2">
  <advance width="418"/>
  <unicode hex="007A"/>
  <note>
z
</note>
  <guideline x="445" y="7" angle="0"/>
  <anchor x="240" y="497" name="top"/>
  <outline>
    <contour>
      <point x="62" y="497" type="line"/>
      <point x="51" y="414" type="line"/>
      <point x="260" y="414" type="line"/>
      <point x="-10" y="61" type="line"/>
      <point x="-10" y="0" type="line"/>
      <point x="373" y="0" type="line"/>
      <point x="384" y="84" type="line"/>
      <point x="145" y="84" type="line"/>
      <point x="418" y="435" type="line"/>
      <point x="418" y="497" type="line"/>
    </contour>
  </outline>
</glyph>
<glyph name="braceleft" format="2">
  <advance width="350"/>
  <unicode hex="007B"/>
  <note>
braceleft
</note>
  <outline>
    <contour>
      <point x="221" y="-147" type="curve" smooth="yes"/>
      <point x="267" y="-147" type="line"/>
      <point x="276" y="-84" type="line"/>
      <point x="203" y="-84"/>
      <point x="187" y="-74"/>
      <point x="198" y="0" type="curve" smooth="yes"/>
      <point x="222" y="166" type="line" smooth="yes"/>
      <point x="229" y="214"/>
      <point x="229" y="271"/>
      <point x="186" y="296" type="curve"/>
      <point x="237" y="321"/>
      <point x="252" y="379"/>
      <point x="259" y="427" type="curve" smooth="yes"/>
      <point x="283" y="593" type="line" smooth="yes"/>
      <point x="293" y="661"/>
      <point x="314" y="677"/>
      <point x="383" y="677" type="curve"/>
      <point x="391" y="739" type="line"/>
      <point x="332" y="739" type="line" smooth="yes"/>
      <point x="226" y="739"/>
      <point x="174" y="666"/>
      <point x="161" y="569" type="curve" smooth="yes"/>
      <point x="140" y="416" type="line" smooth="yes"/>
      <point x="134" y="375"/>
      <point x="114" y="327"/>
      <point x="63" y="327" type="curve"/>
      <point x="55" y="266" type="line"/>
      <point x="101" y="266"/>
      <point x="113" y="222"/>
      <point x="108" y="183" type="curve" smooth="yes"/>
      <point x="86" y="24" type="line" smooth="yes"/>
      <point x="71" y="-81"/>
      <point x="108" y="-147"/>
    </contour>
  </outline>
</glyph>
<glyph name="bar" format="2">
  <advance width="235"/>
  <unicode hex="007C"/>
  <note>
bar
</note>
  <outline>
    <contour>
      <point x="131" y="745" type="line"/>
      <point x="9" y="-116" type="line"/>
      <point x="107" y="-116" type="line"/>
      <point x="229" y="745" type="line"/>
    </contour>
  </outline>
</glyph>
<glyph name="asciitilde" format="2">
  <advance width="559"/>
  <unicode hex="007E"/>
  <note>
asciitilde
</note>
  <outline>
    <contour>
      <point x="528" y="299" type="curve"/>
      <point x="476" y="357" type="line"/>
      <point x="454" y="325"/>
      <point x="420" y="284"/>
      <point x="382" y="284" type="curve" smooth="yes"/>
      <point x="329" y="284"/>
      <point x="270" y="354"/>
      <point x="185" y="354" type="curve" smooth="yes"/>
      <point x="125" y="354"/>
      <point x="64" y="299"/>
      <point x="31" y="244" type="curve"/>
      <point x="86" y="189" type="line"/>
      <point x="104" y="220"/>
      <point x="137" y="264"/>
      <point x="173" y="264" type="curve" smooth="yes"/>
      <point x="244" y="264"/>
      <point x="291" y="194"/>
      <point x="369" y="194" type="curve" smooth="yes"/>
      <point x="425" y="194"/>
      <point x="492" y="252"/>
    </contour>
  </outline>
</glyph>
<glyph name="cent" format="2">
  <advance width="491"/>
  <unicode hex="00A2"/>
  <note>
cent
</note>
  <outline>
    <contour>
      <point x="323" y="486" type="curve" smooth="yes"/>
      <point x="163" y="486"/>
      <point x="52" y="365"/>
      <point x="52" y="202" type="curve" smooth="yes"/>
      <point x="52" y="89"/>
      <point x="116" y="12"/>
      <point x="243" y="12" type="curve" smooth="yes"/>
      <point x="306" y="12"/>
      <point x="347" y="26"/>
      <point x="406" y="54" type="curve"/>
      <point x="380" y="128" type="line"/>
      <point x="338" y="105"/>
      <point x="301" y="94"/>
      <point x="271" y="94" type="curve" smooth="yes"/>
      <point x="212" y="94"/>
      <point x="178" y="134"/>
      <point x="178" y="208" type="curve" smooth="yes"/>
      <point x="178" y="304"/>
      <point x="220" y="404"/>
      <point x="301" y="404" type="curve" smooth="yes"/>
      <point x="339" y="404"/>
      <point x="362" y="390"/>
      <point x="388" y="369" type="curve"/>
      <point x="454" y="443" type="line"/>
      <point x="420" y="469"/>
      <point x="367" y="486"/>
    </contour>
    <contour>
      <point x="242" y="43" type="line"/>
      <point x="178" y="43" type="line"/>
      <point x="110" y="-128" type="line"/>
      <point x="202" y="-128" type="line"/>
    </contour>
    <contour>
      <point x="271" y="462" type="line"/>
      <point x="339" y="462" type="line"/>
      <point x="401" y="622" type="line"/>
      <point x="307" y="622" type="line"/>
    </contour>
  </outline>
</glyph>
<glyph name="yen" format="2">
  <advance width="604"/>
  <unicode hex="00A5"/>
  <note>
yen
</note>
  <outline>
    <contour>
      <point x="233" y="706" type="line"/>
      <point x="85" y="706" type="line"/>
      <point x="243" y="307" type="line"/>
      <point x="199" y="0" type="line"/>
      <point x="332" y="0" type="line"/>
      <point x="376" y="307" type="line"/>
      <point x="649" y="706" type="line"/>
      <point x="529" y="706" type="line"/>
      <point x="340" y="434" type="line"/>
    </contour>
    <contour>
      <point x="83" y="389" type="line"/>
      <point x="59" y="307" type="line"/>
      <point x="557" y="307" type="line"/>
      <point x="581" y="389" type="line"/>
    </contour>
    <contour>
      <point x="64" y="249" type="line"/>
      <point x="39" y="167" type="line"/>
      <point x="537" y="167" type="line"/>
      <point x="562" y="249" type="line"/>
    </contour>
  </outline>
</glyph>
<glyph name="brokenbar" format="2">
  <advance width="238"/>
  <unicode hex="00A6"/>
  <note>
brokenbar
</note>
  <outline>
    <contour>
      <point x="131" y="745" type="line"/>
      <point x="81" y="392" type="line"/>
      <point x="179" y="392" type="line"/>
      <point x="229" y="745" type="line"/>
    </contour>
    <contour>
      <point x="59" y="237" type="line"/>
      <point x="9" y="-116" type="line"/>
      <point x="107" y="-116" type="line"/>
      <point x="157" y="237" type="line"/>
    </contour>
  </outline>
</glyph>
<glyph name="copyright" format="2">
  <advance width="644"/>
  <unicode hex="00A9"/>
  <note>
copyright
</note>
  <outline>
    <contour>
      <point x="599" y="250" type="curve" smooth="yes"/>
      <point x="599" y="402"/>
      <point x="474" y="527"/>
      <point x="322" y="527" type="curve" smooth="yes"/>
      <point x="169" y="527"/>
      <point x="45" y="403"/>
      <point x="45" y="250" type="curve" smooth="yes"/>
      <point x="45" y="97"/>
      <point x="169" y="-27"/>
      <point x="322" y="-27" type="curve" smooth="yes"/>
      <point x="474" y="-27"/>
      <point x="599" y="98"/>
    </contour>
    <contour>
      <point x="559" y="250" type="curve" smooth="yes"/>
      <point x="559" y="119"/>
      <point x="453" y="13"/>
      <point x="322" y="13" type="curve" smooth="yes"/>
      <point x="191" y="13"/>
      <point x="85" y="119"/>
      <point x="85" y="250" type="curve" smooth="yes"/>
      <point x="85" y="381"/>
      <point x="191" y="487"/>
      <point x="322" y="487" type="curve" smooth="yes"/>
      <point x="453" y="487"/>
      <point x="559" y="381"/>
    </contour>
    <contour>
      <point x="447" y="112" type="curve"/>
      <point x="409" y="176" type="line"/>
      <point x="391" y="157"/>
      <point x="370" y="143"/>
      <point x="343" y="143" type="curve" smooth="yes"/>
      <point x="284" y="143"/>
      <point x="266" y="203"/>
      <point x="266" y="251" type="curve" smooth="yes"/>
      <point x="266" y="292"/>
      <point x="282" y="357"/>
      <point x="333" y="357" type="curve" smooth="yes"/>
      <point x="360" y="357"/>
      <point x="378" y="346"/>
      <point x="398" y="330" type="curve"/>
      <point x="442" y="386" type="line"/>
      <point x="415" y="406"/>
      <point x="373" y="421"/>
      <point x="340" y="421" type="curve" smooth="yes"/>
      <point x="239" y="421"/>
      <point x="173" y="351"/>
      <point x="173" y="250" type="curve" smooth="yes"/>
      <point x="173" y="151"/>
      <point x="228" y="80"/>
      <point x="331" y="80" type="curve" smooth="yes"/>
      <point x="379" y="80"/>
      <point x="406" y="91"/>
    </contour>
  </outline>
</glyph>
<glyph name="ordfeminine" format="2">
  <advance width="371"/>
  <unicode hex="00AA"/>
  <note>
ordfeminine
</note>
  <guideline x="131" y="641" angle="90"/>
  <guideline x="49" y="641" angle="90"/>
  <outline>
    <contour>
      <point x="228" y="715" type="curve" smooth="yes"/>
      <point x="112" y="715"/>
      <point x="49" y="603"/>
      <point x="49" y="507" type="curve" smooth="yes"/>
      <point x="49" y="433"/>
      <point x="86" y="368"/>
      <point x="163" y="368" type="curve" smooth="yes"/>
      <point x="195" y="368"/>
      <point x="233" y="381"/>
      <point x="259" y="416" type="curve"/>
      <point x="263" y="416" type="line"/>
      <point x="268" y="389"/>
      <point x="290" y="370"/>
      <point x="317" y="370" type="curve" smooth="yes"/>
      <point x="340" y="370"/>
      <point x="368" y="379"/>
      <point x="388" y="391" type="curve"/>
      <point x="376" y="433" type="line"/>
      <point x="368" y="430"/>
      <point x="353" y="425"/>
      <point x="344" y="425" type="curve" smooth="yes"/>
      <point x="331" y="425"/>
      <point x="328" y="438"/>
      <point x="328" y="449" type="curve" smooth="yes"/>
      <point x="328" y="459"/>
      <point x="332" y="492"/>
      <point x="369" y="709" type="curve"/>
      <point x="326" y="709" type="line"/>
      <point x="308" y="682" type="line"/>
      <point x="284" y="706"/>
      <point x="250" y="715"/>
    </contour>
    <contour>
      <point x="223" y="660" type="curve" smooth="yes"/>
      <point x="243" y="660"/>
      <point x="261" y="652"/>
      <point x="280" y="634" type="curve"/>
      <point x="273" y="591" type="line" smooth="yes"/>
      <point x="259" y="507"/>
      <point x="235" y="424"/>
      <point x="178" y="424" type="curve" smooth="yes"/>
      <point x="145" y="424"/>
      <point x="130" y="464"/>
      <point x="130" y="510" type="curve" smooth="yes"/>
      <point x="130" y="578"/>
      <point x="162" y="660"/>
    </contour>
    <contour>
      <point x="62" y="252" type="line"/>
      <point x="310" y="252" type="line"/>
      <point x="318" y="310" type="line"/>
      <point x="70" y="310" type="line"/>
    </contour>
  </outline>
</glyph>
<glyph name="logicalnot" format="2">
  <advance width="638"/>
  <unicode hex="00AC"/>
  <note>
logicalnot
</note>
  <outline>
    <contour>
      <point x="489" y="267" type="line"/>
      <point x="463" y="79" type="line"/>
      <point x="549" y="79" type="line"/>
      <point x="587" y="350" type="line"/>
      <point x="89" y="350" type="line"/>
      <point x="77" y="267" type="line"/>
    </contour>
  </outline>
</glyph>
<glyph name="registered" format="2">
  <advance width="469"/>
  <unicode hex="00AE"/>
  <note>
registered
</note>
  <outline>
    <contour>
      <point x="496" y="610" type="curve" smooth="yes"/>
      <point x="496" y="726"/>
      <point x="401" y="821"/>
      <point x="285" y="821" type="curve" smooth="yes"/>
      <point x="169" y="821"/>
      <point x="75" y="726"/>
      <point x="75" y="610" type="curve" smooth="yes"/>
      <point x="75" y="494"/>
      <point x="169" y="399"/>
      <point x="285" y="399" type="curve" smooth="yes"/>
      <point x="401" y="399"/>
      <point x="496" y="494"/>
    </contour>
    <contour>
      <point x="461" y="610" type="curve" smooth="yes"/>
      <point x="461" y="513"/>
      <point x="382" y="435"/>
      <point x="285" y="435" type="curve" smooth="yes"/>
      <point x="189" y="435"/>
      <point x="110" y="513"/>
      <point x="110" y="610" type="curve" smooth="yes"/>
      <point x="110" y="707"/>
      <point x="189" y="785"/>
      <point x="285" y="785" type="curve" smooth="yes"/>
      <point x="382" y="785"/>
      <point x="461" y="706"/>
    </contour>
    <contour>
      <point x="200" y="732" type="line"/>
      <point x="200" y="497" type="line"/>
      <point x="260" y="497" type="line"/>
      <point x="260" y="593" type="line"/>
      <point x="270" y="593" type="line"/>
      <point x="336" y="497" type="line"/>
      <point x="407" y="497" type="line"/>
      <point x="333" y="604" type="line"/>
      <point x="356" y="614"/>
      <point x="376" y="635"/>
      <point x="376" y="663" type="curve" smooth="yes"/>
      <point x="376" y="718"/>
      <point x="336" y="732"/>
      <point x="293" y="732" type="curve" smooth="yes"/>
    </contour>
    <contour>
      <point x="260" y="685" type="line"/>
      <point x="286" y="685" type="line" smooth="yes"/>
      <point x="305" y="685"/>
      <point x="316" y="678"/>
      <point x="316" y="665" type="curve" smooth="yes"/>
      <point x="316" y="647"/>
      <point x="303" y="640"/>
      <point x="279" y="640" type="curve" smooth="yes"/>
      <point x="260" y="640" type="line"/>
    </contour>
  </outline>
</glyph>
<glyph name="degree" format="2">
  <advance width="386"/>
  <unicode hex="00B0"/>
  <note>
degree
</note>
  <outline>
    <contour>
      <point x="388" y="613" type="curve" smooth="yes"/>
      <point x="388" y="684"/>
      <point x="334" y="738"/>
      <point x="261" y="738" type="curve" smooth="yes"/>
      <point x="174" y="738"/>
      <point x="95" y="662"/>
      <point x="95" y="573" type="curve" smooth="yes"/>
      <point x="95" y="502"/>
      <point x="148" y="448"/>
      <point x="221" y="448" type="curve" smooth="yes"/>
      <point x="309" y="448"/>
      <point x="388" y="523"/>
    </contour>
    <contour>
      <point x="321" y="604" type="curve" smooth="yes"/>
      <point x="321" y="555"/>
      <point x="279" y="512"/>
      <point x="230" y="512" type="curve" smooth="yes"/>
      <point x="189" y="512"/>
      <point x="162" y="543"/>
      <point x="162" y="581" type="curve" smooth="yes"/>
      <point x="162" y="630"/>
      <point x="204" y="674"/>
      <point x="252" y="674" type="curve" smooth="yes"/>
      <point x="292" y="674"/>
      <point x="321" y="643"/>
    </contour>
  </outline>
</glyph>
<glyph name="plusminus" format="2">
  <advance width="632"/>
  <unicode hex="00B1"/>
  <note>
plusminus
</note>
  <outline>
    <contour>
      <point x="342" y="120" type="line"/>
      <point x="363" y="267" type="line"/>
      <point x="568" y="267" type="line"/>
      <point x="579" y="352" type="line"/>
      <point x="374" y="352" type="line"/>
      <point x="395" y="497" type="line"/>
      <point x="307" y="497" type="line"/>
      <point x="286" y="351" type="line"/>
      <point x="81" y="351" type="line"/>
      <point x="69" y="266" type="line"/>
      <point x="274" y="266" type="line"/>
      <point x="254" y="120" type="line"/>
    </contour>
    <contour>
      <point x="44" y="86" type="line"/>
      <point x="32" y="1" type="line"/>
      <point x="530" y="1" type="line"/>
      <point x="542" y="86" type="line"/>
    </contour>
  </outline>
</glyph>
<glyph name="acute" format="2">
  <advance width="293"/>
  <unicode hex="00B4"/>
  <note>
acute
</note>
  <anchor x="118" y="497" name="_top"/>
  <outline>
    <contour>
      <point x="211" y="735" type="line"/>
      <point x="78" y="570" type="line"/>
      <point x="181" y="570" type="line"/>
      <point x="356" y="735" type="line"/>
    </contour>
  </outline>
</glyph>
<glyph name="ordmasculine" format="2">
  <advance width="355"/>
  <unicode hex="00BA"/>
  <note>
ordmasculine
</note>
  <outline>
    <contour>
      <point x="375" y="573" type="curve" smooth="yes"/>
      <point x="375" y="657"/>
      <point x="327" y="715"/>
      <point x="240" y="715" type="curve" smooth="yes"/>
      <point x="126" y="715"/>
      <point x="58" y="614"/>
      <point x="58" y="508" type="curve" smooth="yes"/>
      <point x="58" y="423"/>
      <point x="106" y="366"/>
      <point x="192" y="366" type="curve" smooth="yes"/>
      <point x="307" y="366"/>
      <point x="375" y="465"/>
    </contour>
    <contour>
      <point x="290" y="576" type="curve" smooth="yes"/>
      <point x="290" y="521"/>
      <point x="271" y="421"/>
      <point x="201" y="421" type="curve" smooth="yes"/>
      <point x="153" y="421"/>
      <point x="142" y="465"/>
      <point x="142" y="505" type="curve" smooth="yes"/>
      <point x="142" y="559"/>
      <point x="161" y="660"/>
      <point x="232" y="660" type="curve" smooth="yes"/>
      <point x="279" y="660"/>
      <point x="290" y="615"/>
    </contour>
    <contour>
      <point x="53" y="252" type="line"/>
      <point x="300" y="252" type="line"/>
      <point x="308" y="310" type="line"/>
      <point x="61" y="310" type="line"/>
    </contour>
  </outline>
</glyph>
<glyph name="guillemetright" format="2">
  <advance width="454"/>
  <unicode hex="00BB"/>
  <note>
guillemotright
</note>
  <outline>
    <contour>
      <point x="14" y="173" type="line"/>
      <point x="89" y="162" type="line"/>
      <point x="269" y="332" type="line"/>
      <point x="141" y="504" type="line"/>
      <point x="61" y="490" type="line"/>
      <point x="159" y="332" type="line"/>
    </contour>
    <contour>
      <point x="183" y="173" type="line"/>
      <point x="257" y="162" type="line"/>
      <point x="437" y="332" type="line"/>
      <point x="309" y="504" type="line"/>
      <point x="230" y="490" type="line"/>
      <point x="327" y="332" type="line"/>
    </contour>
  </outline>
</glyph>
<glyph name="questiondown" format="2">
  <advance width="432"/>
  <unicode hex="00BF"/>
  <note>
questiondown
</note>
  <outline>
    <contour>
      <point x="137" y="-234" type="curve" smooth="yes"/>
      <point x="185" y="-234"/>
      <point x="240" y="-221"/>
      <point x="295" y="-196" type="curve"/>
      <point x="259" y="-102" type="line"/>
      <point x="228" y="-118"/>
      <point x="198" y="-126"/>
      <point x="172" y="-126" type="curve" smooth="yes"/>
      <point x="134" y="-126"/>
      <point x="107" y="-108"/>
      <point x="107" y="-70" type="curve" smooth="yes"/>
      <point x="107" y="-27"/>
      <point x="147" y="2"/>
      <point x="192" y="33" type="curve" smooth="yes"/>
      <point x="249" y="72"/>
      <point x="315" y="112"/>
      <point x="315" y="188" type="curve" smooth="yes"/>
      <point x="315" y="227"/>
      <point x="293" y="287"/>
      <point x="182" y="298" type="curve"/>
      <point x="148" y="220" type="line"/>
      <point x="194" y="220"/>
      <point x="201" y="191"/>
      <point x="201" y="180" type="curve" smooth="yes"/>
      <point x="201" y="149"/>
      <point x="170" y="127"/>
      <point x="130" y="103" type="curve" smooth="yes"/>
      <point x="63" y="63"/>
      <point x="-24" y="13"/>
      <point x="-24" y="-95" type="curve" smooth="yes"/>
      <point x="-24" y="-187"/>
      <point x="44" y="-234"/>
    </contour>
    <contour>
      <point x="254" y="355" type="curve" smooth="yes"/>
      <point x="301" y="355"/>
      <point x="343" y="396"/>
      <point x="343" y="444" type="curve" smooth="yes"/>
      <point x="343" y="481"/>
      <point x="315" y="510"/>
      <point x="276" y="510" type="curve" smooth="yes"/>
      <point x="229" y="510"/>
      <point x="187" y="469"/>
      <point x="187" y="422" type="curve" smooth="yes"/>
      <point x="187" y="384"/>
      <point x="215" y="355"/>
    </contour>
  </outline>
</glyph>
<glyph name="germandbls" format="2">
  <advance width="536"/>
  <unicode hex="00DF"/>
  <note>
germandbls
</note>
  <outline>
    <contour>
      <point x="-203" y="-185" type="line"/>
      <point x="-203" y="-185"/>
      <point x="-158" y="-230"/>
      <point x="-72" y="-230" type="curve" smooth="yes"/>
      <point x="40" y="-230"/>
      <point x="108" y="-159"/>
      <point x="124" y="-42" type="curve" smooth="yes"/>
      <point x="192" y="464" type="line" smooth="yes"/>
      <point x="202" y="535"/>
      <point x="228" y="647"/>
      <point x="318" y="647" type="curve" smooth="yes"/>
      <point x="351" y="647"/>
      <point x="376" y="619"/>
      <point x="376" y="587" type="curve" smooth="yes"/>
      <point x="376" y="480"/>
      <point x="216" y="474"/>
      <point x="216" y="342" type="curve" smooth="yes"/>
      <point x="216" y="209"/>
      <point x="397" y="231"/>
      <point x="397" y="147" type="curve" smooth="yes"/>
      <point x="397" y="101"/>
      <point x="360" y="71"/>
      <point x="317" y="71" type="curve" smooth="yes"/>
      <point x="279" y="71"/>
      <point x="246" y="94"/>
      <point x="225" y="114" type="curve"/>
      <point x="173" y="32" type="line"/>
      <point x="206" y="5"/>
      <point x="265" y="-12"/>
      <point x="315" y="-12" type="curve" smooth="yes"/>
      <point x="424" y="-12"/>
      <point x="524" y="49"/>
      <point x="524" y="172" type="curve" smooth="yes"/>
      <point x="524" y="311"/>
      <point x="344" y="291"/>
      <point x="344" y="369" type="curve" smooth="yes"/>
      <point x="344" y="430"/>
      <point x="504" y="443"/>
      <point x="504" y="604" type="curve" smooth="yes"/>
      <point x="504" y="705"/>
      <point x="421" y="744"/>
      <point x="330" y="744" type="curve" smooth="yes"/>
      <point x="204" y="744"/>
      <point x="136" y="678"/>
      <point x="90" y="550" type="curve" smooth="yes"/>
      <point x="77" y="514"/>
      <point x="55" y="497"/>
      <point x="6" y="497" type="curve"/>
      <point x="-6" y="406" type="line"/>
      <point x="66" y="406" type="line"/>
      <point x="5" y="-44" type="line" smooth="yes"/>
      <point x="-5" y="-120"/>
      <point x="-30" y="-140"/>
      <point x="-80" y="-140" type="curve" smooth="yes"/>
      <point x="-120" y="-140"/>
      <point x="-156" y="-101"/>
      <point x="-156" y="-101" type="curve"/>
    </contour>
  </outline>
</glyph>
<glyph name="ae" format="2">
  <advance width="776"/>
  <unicode hex="00E6"/>
  <note>
ae
</note>
  <anchor x="441" y="497" name="top"/>
  <outline>
    <contour>
      <point x="364" y="107" type="curve"/>
      <point x="338" y="275" type="line"/>
      <point x="317" y="165"/>
      <point x="282" y="70"/>
      <point x="209" y="70" type="curve" smooth="yes"/>
      <point x="157" y="70"/>
      <point x="138" y="132"/>
      <point x="138" y="204" type="curve" smooth="yes"/>
      <point x="138" y="340"/>
      <point x="195" y="427"/>
      <point x="280" y="427" type="curve" smooth="yes"/>
      <point x="320" y="427"/>
      <point x="360" y="407"/>
      <point x="406" y="365" type="curve"/>
      <point x="434" y="429" type="line"/>
      <point x="380" y="501"/>
      <point x="309" y="509"/>
      <point x="274" y="509" type="curve" smooth="yes"/>
      <point x="104" y="509"/>
      <point x="21" y="347"/>
      <point x="21" y="201" type="curve" smooth="yes"/>
      <point x="21" y="87"/>
      <point x="69" y="-12"/>
      <point x="186" y="-12" type="curve" smooth="yes"/>
      <point x="273" y="-12"/>
      <point x="331" y="43"/>
    </contour>
    <contour>
      <point x="560" y="76" type="curve" smooth="yes"/>
      <point x="478" y="76"/>
      <point x="448" y="140"/>
      <point x="448" y="221" type="curve" smooth="yes"/>
      <point x="448" y="321"/>
      <point x="499" y="426"/>
      <point x="595" y="426" type="curve" smooth="yes"/>
      <point x="624" y="426"/>
      <point x="639" y="410"/>
      <point x="639" y="387" type="curve" smooth="yes"/>
      <point x="639" y="338"/>
      <point x="580" y="277"/>
      <point x="435" y="277" type="curve"/>
      <point x="435" y="194" type="line"/>
      <point x="700" y="188"/>
      <point x="762" y="317"/>
      <point x="762" y="384" type="curve" smooth="yes"/>
      <point x="762" y="471"/>
      <point x="690" y="510"/>
      <point x="604" y="510" type="curve" smooth="yes"/>
      <point x="432" y="510"/>
      <point x="331" y="356"/>
      <point x="331" y="204" type="curve" smooth="yes"/>
      <point x="331" y="85"/>
      <point x="392" y="-12"/>
      <point x="548" y="-12" type="curve" smooth="yes"/>
      <point x="670" y="-12"/>
      <point x="746" y="54"/>
      <point x="746" y="54" type="curve"/>
      <point x="704" y="137" type="line"/>
      <point x="670" y="111"/>
      <point x="615" y="76"/>
    </contour>
  </outline>
</glyph>
<glyph name="thorn" format="2">
  <advance width="526"/>
  <unicode hex="00FE"/>
  <note>
thorn
</note>
  <outline>
    <contour>
      <point x="334" y="510" type="curve" smooth="yes"/>
      <point x="291" y="510"/>
      <point x="240" y="492"/>
      <point x="207" y="461" type="curve"/>
      <point x="248" y="769" type="line"/>
      <point x="120" y="769" type="line"/>
      <point x="123" y="715" type="line"/>
      <point x="-2" y="-225" type="line"/>
      <point x="125" y="-225" type="line"/>
      <point x="120" y="-170" type="line"/>
      <point x="145" y="21" type="line"/>
      <point x="169" y="-2"/>
      <point x="214" y="-11"/>
      <point x="246" y="-11" type="curve" smooth="yes"/>
      <point x="414" y="-11"/>
      <point x="505" y="149"/>
      <point x="505" y="301" type="curve" smooth="yes"/>
      <point x="505" y="409"/>
      <point x="454" y="510"/>
    </contour>
    <contour>
      <point x="310" y="426" type="curve" smooth="yes"/>
      <point x="369" y="426"/>
      <point x="383" y="368"/>
      <point x="383" y="297" type="curve" smooth="yes"/>
      <point x="383" y="226"/>
      <point x="350" y="71"/>
      <point x="243" y="71" type="curve" smooth="yes"/>
      <point x="212" y="71"/>
      <point x="185" y="83"/>
      <point x="157" y="111" type="curve"/>
      <point x="159" y="125"/>
      <point x="161" y="140"/>
      <point x="163" y="154" type="curve" smooth="yes"/>
      <point x="181" y="286"/>
      <point x="212" y="426"/>
    </contour>
  </outline>
</glyph>
<glyph name="dcaron" format="2">
  <advance width="609"/>
  <unicode hex="010F"/>
  <outline>
    <contour>
      <point x="280" y="509" type="curve" smooth="yes"/>
      <point x="112" y="509"/>
      <point x="21" y="349"/>
      <point x="21" y="197" type="curve" smooth="yes"/>
      <point x="21" y="89"/>
      <point x="72" y="-12"/>
      <point x="192" y="-12" type="curve" smooth="yes"/>
      <point x="241" y="-12"/>
      <point x="299" y="7"/>
      <point x="338" y="59" type="curve"/>
      <point x="342" y="59" type="line"/>
      <point x="349" y="20"/>
      <point x="385" y="-9"/>
      <point x="424" y="-9" type="curve" smooth="yes"/>
      <point x="458" y="-9"/>
      <point x="501" y="3"/>
      <point x="530" y="22" type="curve"/>
      <point x="513" y="86" type="line"/>
      <point x="500" y="81"/>
      <point x="478" y="74"/>
      <point x="465" y="74" type="curve" smooth="yes"/>
      <point x="445" y="74"/>
      <point x="440" y="93"/>
      <point x="440" y="110" type="curve" smooth="yes"/>
      <point x="440" y="129"/>
      <point x="464" y="283"/>
      <point x="534" y="769" type="curve"/>
      <point x="407" y="769" type="line"/>
      <point x="412" y="714" type="line"/>
      <point x="381" y="477" type="line"/>
      <point x="357" y="500"/>
      <point x="313" y="509"/>
    </contour>
    <contour>
      <point x="283" y="427" type="curve" smooth="yes"/>
      <point x="314" y="427"/>
      <point x="341" y="415"/>
      <point x="369" y="387" type="curve"/>
      <point x="364" y="351" type="line" smooth="yes"/>
      <point x="345" y="218"/>
      <point x="310" y="71"/>
      <point x="216" y="71" type="curve" smooth="yes"/>
      <point x="157" y="71"/>
      <point x="143" y="129"/>
      <point x="143" y="200" type="curve" smooth="yes"/>
      <point x="143" y="271"/>
      <point x="176" y="427"/>
    </contour>
    <contour>
      <point x="589" y="769" type="line"/>
      <point x="555" y="604" type="line"/>
      <point x="653" y="604" type="line"/>
      <point x="724" y="769" type="line"/>
    </contour>
  </outline>
</glyph>
<glyph name="iogonek" format="2">
  <advance width="228"/>
  <unicode hex="012F"/>
  <outline>
    <contour>
      <point x="248" y="689" type="curve" smooth="yes"/>
      <point x="248" y="725"/>
      <point x="223" y="754"/>
      <point x="186" y="754" type="curve" smooth="yes"/>
      <point x="140" y="754"/>
      <point x="102" y="712"/>
      <point x="102" y="667" type="curve" smooth="yes"/>
      <point x="102" y="631"/>
      <point x="128" y="601"/>
      <point x="165" y="601" type="curve" smooth="yes"/>
      <point x="211" y="601"/>
      <point x="248" y="645"/>
    </contour>
    <contour>
      <point x="207" y="497" type="line"/>
      <point x="83" y="497" type="line"/>
      <point x="86" y="443" type="line"/>
      <point x="27" y="0" type="line"/>
      <point x="151" y="0" type="line"/>
      <point x="148" y="55" type="line"/>
    </contour>
    <contour>
      <point x="137" y="6" type="curve"/>
      <point x="126" y="33" type="line"/>
      <point x="50" y="21"/>
      <point x="-91" y="-42"/>
      <point x="-91" y="-134" type="curve" smooth="yes"/>
      <point x="-91" y="-188"/>
      <point x="-48" y="-211"/>
      <point x="1" y="-211" type="curve" smooth="yes"/>
      <point x="56" y="-211"/>
      <point x="108" y="-185"/>
      <point x="151" y="-154" type="curve"/>
      <point x="135" y="-104" type="line"/>
      <point x="113" y="-118"/>
      <point x="73" y="-140"/>
      <point x="47" y="-140" type="curve" smooth="yes"/>
      <point x="27" y="-140"/>
      <point x="10" y="-132"/>
      <point x="10" y="-109" type="curve" smooth="yes"/>
      <point x="10" y="-59"/>
      <point x="84" y="-16"/>
    </contour>
  </outline>
</glyph>
<glyph name="Eng" format="2">
  <advance width="682"/>
  <unicode hex="014A"/>
  <outline>
    <contour>
      <point x="11" y="0" type="line"/>
      <point x="119" y="0" type="line"/>
      <point x="186" y="497" type="line" smooth="yes"/>
      <point x="189" y="518"/>
      <point x="188" y="542"/>
      <point x="189" y="564" type="curve"/>
      <point x="199" y="542"/>
      <point x="209" y="519"/>
      <point x="220" y="497" type="curve" smooth="yes"/>
      <point x="446" y="34" type="line"/>
      <point x="435" y="-43"/>
      <point x="412" y="-120"/>
      <point x="318" y="-131" type="curve"/>
      <point x="319" y="-209" type="line"/>
      <point x="517" y="-200"/>
      <point x="564" y="-70"/>
      <point x="586" y="98" type="curve" smooth="yes"/>
      <point x="671" y="732" type="line"/>
      <point x="560" y="732" type="line"/>
      <point x="503" y="304" type="line" smooth="yes"/>
      <point x="500" y="279"/>
      <point x="501" y="252"/>
      <point x="499" y="227" type="curve"/>
      <point x="487" y="254"/>
      <point x="477" y="279"/>
      <point x="470" y="293" type="curve" smooth="yes"/>
      <point x="254" y="732" type="line"/>
      <point x="95" y="732" type="line"/>
      <point x="100" y="671" type="line"/>
    </contour>
  </outline>
</glyph>
<glyph name="oe" format="2">
  <advance width="799"/>
  <unicode hex="0153"/>
  <note>
oe
</note>
  <outline>
    <contour>
      <point x="213" y="-12" type="curve" smooth="yes"/>
      <point x="381" y="-12"/>
      <point x="475" y="152"/>
      <point x="475" y="297" type="curve" smooth="yes"/>
      <point x="475" y="409"/>
      <point x="420" y="510"/>
      <point x="283" y="510" type="curve" smooth="yes"/>
      <point x="115" y="510"/>
      <point x="21" y="346"/>
      <point x="21" y="201" type="curve" smooth="yes"/>
      <point x="21" y="89"/>
      <point x="76" y="-12"/>
    </contour>
    <contour>
      <point x="224" y="69" type="curve" smooth="yes"/>
      <point x="159" y="69"/>
      <point x="138" y="129"/>
      <point x="138" y="200" type="curve" smooth="yes"/>
      <point x="138" y="308"/>
      <point x="184" y="429"/>
      <point x="272" y="429" type="curve" smooth="yes"/>
      <point x="337" y="429"/>
      <point x="358" y="369"/>
      <point x="358" y="298" type="curve" smooth="yes"/>
      <point x="358" y="190"/>
      <point x="312" y="69"/>
    </contour>
    <contour>
      <point x="583" y="76" type="curve" smooth="yes"/>
      <point x="501" y="76"/>
      <point x="471" y="140"/>
      <point x="471" y="221" type="curve" smooth="yes"/>
      <point x="471" y="321"/>
      <point x="522" y="426"/>
      <point x="618" y="426" type="curve" smooth="yes"/>
      <point x="647" y="426"/>
      <point x="662" y="410"/>
      <point x="662" y="387" type="curve" smooth="yes"/>
      <point x="662" y="338"/>
      <point x="603" y="277"/>
      <point x="458" y="277" type="curve"/>
      <point x="458" y="194" type="line"/>
      <point x="723" y="188"/>
      <point x="785" y="317"/>
      <point x="785" y="384" type="curve" smooth="yes"/>
      <point x="785" y="471"/>
      <point x="713" y="510"/>
      <point x="627" y="510" type="curve" smooth="yes"/>
      <point x="455" y="510"/>
      <point x="354" y="356"/>
      <point x="354" y="204" type="curve" smooth="yes"/>
      <point x="354" y="85"/>
      <point x="415" y="-12"/>
      <point x="571" y="-12" type="curve" smooth="yes"/>
      <point x="693" y="-12"/>
      <point x="769" y="54"/>
      <point x="769" y="54" type="curve"/>
      <point x="727" y="137" type="line"/>
      <point x="693" y="111"/>
      <point x="638" y="76"/>
    </contour>
  </outline>
</glyph>
<glyph name="Schwa" format="2">
  <advance width="699"/>
  <unicode hex="018F"/>
  <outline>
    <contour>
      <point x="96" y="625" type="curve"/>
      <point x="179" y="545" type="line"/>
      <point x="235" y="607"/>
      <point x="293" y="648"/>
      <point x="382" y="648" type="curve" smooth="yes"/>
      <point x="506" y="648"/>
      <point x="541" y="540"/>
      <point x="541" y="434" type="curve" smooth="yes"/>
      <point x="541" y="293"/>
      <point x="483" y="84"/>
      <point x="308" y="84" type="curve" smooth="yes"/>
      <point x="205" y="84"/>
      <point x="154" y="165"/>
      <point x="154" y="280" type="curve" smooth="yes"/>
      <point x="154" y="307"/>
      <point x="157" y="336"/>
      <point x="163" y="367" type="curve"/>
      <point x="28" y="367" type="line"/>
      <point x="23" y="336"/>
      <point x="20" y="306"/>
      <point x="20" y="277" type="curve" smooth="yes"/>
      <point x="20" y="108"/>
      <point x="113" y="-11"/>
      <point x="292" y="-11" type="curve" smooth="yes"/>
      <point x="541" y="-11"/>
      <point x="682" y="209"/>
      <point x="682" y="439" type="curve" smooth="yes"/>
      <point x="682" y="622"/>
      <point x="582" y="743"/>
      <point x="393" y="743" type="curve" smooth="yes"/>
      <point x="269" y="743"/>
      <point x="181" y="696"/>
    </contour>
    <contour>
      <point x="28" y="367" type="line"/>
      <point x="47" y="279" type="line"/>
      <point x="621" y="279" type="line"/>
      <point x="633" y="367" type="line"/>
    </contour>
  </outline>
</glyph>
<glyph name="Fhook" format="2">
  <advance width="467"/>
  <unicode hex="0191"/>
  <outline>
    <contour>
      <point x="-113" y="-131" type="curve"/>
      <point x="-112" y="-209" type="line"/>
      <point x="86" y="-200"/>
      <point x="132" y="-70"/>
      <point x="155" y="98" type="curve" smooth="yes"/>
      <point x="186" y="327" type="line"/>
      <point x="389" y="327" type="line"/>
      <point x="402" y="426" type="line"/>
      <point x="199" y="426" type="line"/>
      <point x="227" y="633" type="line"/>
      <point x="489" y="633" type="line"/>
      <point x="502" y="732" type="line"/>
      <point x="95" y="732" type="line"/>
      <point x="101" y="671" type="line"/>
      <point x="17" y="47" type="line" smooth="yes"/>
      <point x="6" y="-34"/>
      <point x="-14" y="-119"/>
    </contour>
  </outline>
</glyph>
<glyph name="florin" format="2">
  <advance width="377"/>
  <unicode hex="0192"/>
  <note>
florin
</note>
  <outline>
    <contour>
      <point x="382" y="706" type="curve" smooth="yes"/>
      <point x="315" y="706"/>
      <point x="266" y="678"/>
      <point x="225" y="625" type="curve" smooth="yes"/>
      <point x="193" y="583"/>
      <point x="186" y="539"/>
      <point x="163" y="495" type="curve" smooth="yes"/>
      <point x="143" y="457"/>
      <point x="93" y="451"/>
      <point x="58" y="450" type="curve"/>
      <point x="48" y="380" type="line"/>
      <point x="123" y="380" type="line"/>
      <point x="19" y="-39" type="line" smooth="yes"/>
      <point x="8" y="-84"/>
      <point x="-28" y="-111"/>
      <point x="-82" y="-111" type="curve"/>
      <point x="-116" y="-189" type="line"/>
      <point x="-99" y="-192"/>
      <point x="-82" y="-194"/>
      <point x="-66" y="-194" type="curve" smooth="yes"/>
      <point x="39" y="-194"/>
      <point x="126" y="-126"/>
      <point x="156" y="1" type="curve" smooth="yes"/>
      <point x="245" y="380" type="line"/>
      <point x="376" y="380" type="line"/>
      <point x="413" y="460" type="line"/>
      <point x="269" y="460" type="line"/>
      <point x="297" y="551"/>
      <point x="325" y="624"/>
      <point x="387" y="624" type="curve" smooth="yes"/>
      <point x="407" y="624"/>
      <point x="430" y="616"/>
      <point x="455" y="599" type="curve"/>
      <point x="499" y="669" type="line"/>
      <point x="466" y="694"/>
      <point x="422" y="706"/>
    </contour>
  </outline>
</glyph>
<glyph name="Nhookleft" format="2">
  <advance width="682"/>
  <unicode hex="019D"/>
  <outline>
    <contour>
      <point x="-113" y="-131" type="curve"/>
      <point x="-112" y="-209" type="line"/>
      <point x="86" y="-200"/>
      <point x="111" y="-70"/>
      <point x="133" y="98" type="curve" smooth="yes"/>
      <point x="186" y="497" type="line" smooth="yes"/>
      <point x="189" y="518"/>
      <point x="188" y="542"/>
      <point x="189" y="564" type="curve"/>
      <point x="199" y="542"/>
      <point x="209" y="519"/>
      <point x="220" y="497" type="curve" smooth="yes"/>
      <point x="465" y="-5" type="line"/>
      <point x="572" y="-5" type="line"/>
      <point x="671" y="732" type="line"/>
      <point x="560" y="732" type="line"/>
      <point x="503" y="304" type="line" smooth="yes"/>
      <point x="500" y="279"/>
      <point x="501" y="252"/>
      <point x="499" y="227" type="curve"/>
      <point x="487" y="254"/>
      <point x="477" y="279"/>
      <point x="470" y="293" type="curve" smooth="yes"/>
      <point x="254" y="732" type="line"/>
      <point x="95" y="732" type="line"/>
      <point x="100" y="671" type="line"/>
      <point x="17" y="47" type="line" smooth="yes"/>
      <point x="6" y="-34"/>
      <point x="-14" y="-119"/>
    </contour>
  </outline>
</glyph>
<glyph name="uhorn" format="2">
  <advance width="499"/>
  <unicode hex="01B0"/>
  <anchor x="206" y="0" name="bottom"/>
  <anchor x="274" y="497" name="top"/>
  <outline>
    <contour>
      <point x="192" y="497" type="line"/>
      <point x="65" y="497" type="line"/>
      <point x="70" y="453" type="line"/>
      <point x="30" y="146" type="line"/>
      <point x="28" y="134"/>
      <point x="27" y="122"/>
      <point x="27" y="111" type="curve" smooth="yes"/>
      <point x="27" y="29"/>
      <point x="72" y="-11"/>
      <point x="153" y="-11" type="curve" smooth="yes"/>
      <point x="208" y="-11"/>
      <point x="275" y="13"/>
      <point x="310" y="59" type="curve"/>
      <point x="314" y="59" type="line"/>
      <point x="322" y="20"/>
      <point x="355" y="-9"/>
      <point x="396" y="-9" type="curve" smooth="yes"/>
      <point x="429" y="-9"/>
      <point x="475" y="3"/>
      <point x="504" y="22" type="curve"/>
      <point x="487" y="85" type="line"/>
      <point x="474" y="80"/>
      <point x="452" y="73"/>
      <point x="439" y="73" type="curve" smooth="yes"/>
      <point x="418" y="73"/>
      <point x="414" y="92"/>
      <point x="414" y="109" type="curve" smooth="yes"/>
      <point x="414" y="116"/>
      <point x="415" y="123"/>
      <point x="416" y="130" type="curve" smooth="yes"/>
      <point x="470" y="497" type="line"/>
      <point x="342" y="497" type="line"/>
      <point x="348" y="453" type="line"/>
      <point x="329" y="307" type="line" smooth="yes"/>
      <point x="319" y="231"/>
      <point x="284" y="84"/>
      <point x="196" y="84" type="curve" smooth="yes"/>
      <point x="158" y="84"/>
      <point x="147" y="108"/>
      <point x="147" y="142" type="curve" smooth="yes"/>
      <point x="147" y="151"/>
      <point x="148" y="160"/>
      <point x="149" y="169" type="curve" smooth="yes"/>
    </contour>
    <contour>
      <point x="394" y="497" type="curve"/>
      <point x="352" y="443" type="line"/>
      <point x="514" y="407"/>
      <point x="585" y="528"/>
      <point x="591" y="628" type="curve"/>
      <point x="475" y="628" type="line"/>
      <point x="476" y="557"/>
      <point x="445" y="497"/>
    </contour>
  </outline>
</glyph>
<glyph name="schwa" format="2">
  <advance width="462"/>
  <unicode hex="0259"/>
  <outline>
    <contour>
      <point x="163" y="-13" type="curve" smooth="yes"/>
      <point x="343" y="-13"/>
      <point x="441" y="161"/>
      <point x="441" y="296" type="curve" smooth="yes"/>
      <point x="441" y="431"/>
      <point x="346" y="509"/>
      <point x="224" y="509" type="curve" smooth="yes"/>
      <point x="102" y="509"/>
      <point x="26" y="443"/>
      <point x="26" y="443" type="curve"/>
      <point x="68" y="360" type="line"/>
      <point x="102" y="386"/>
      <point x="157" y="421"/>
      <point x="212" y="421" type="curve" smooth="yes"/>
      <point x="264" y="421"/>
      <point x="309" y="383"/>
      <point x="314" y="303" type="curve"/>
      <point x="74" y="301"/>
      <point x="10" y="180"/>
      <point x="10" y="103" type="curve" smooth="yes"/>
      <point x="10" y="25"/>
      <point x="77" y="-13"/>
    </contour>
    <contour>
      <point x="133" y="105" type="curve" smooth="yes"/>
      <point x="133" y="165"/>
      <point x="201" y="215"/>
      <point x="307" y="218" type="curve"/>
      <point x="283" y="107"/>
      <point x="203" y="71"/>
      <point x="172" y="71" type="curve" smooth="yes"/>
      <point x="146" y="71"/>
      <point x="133" y="85"/>
    </contour>
  </outline>
</glyph>
<glyph name="nhookleft" format="2">
  <advance width="492"/>
  <unicode hex="0272"/>
  <outline>
    <contour>
      <point x="-81" y="-169" type="curve"/>
      <point x="-67" y="-224" type="line"/>
      <point x="91" y="-206"/>
      <point x="132" y="-64"/>
      <point x="150" y="65" type="curve" smooth="yes"/>
      <point x="190" y="357" type="line"/>
      <point x="211" y="378"/>
      <point x="269" y="414"/>
      <point x="300" y="414" type="curve" smooth="yes"/>
      <point x="337" y="414"/>
      <point x="350" y="395"/>
      <point x="350" y="360" type="curve" smooth="yes"/>
      <point x="350" y="348"/>
      <point x="349" y="336"/>
      <point x="347" y="324" type="curve" smooth="yes"/>
      <point x="304" y="0" type="line"/>
      <point x="429" y="0" type="line"/>
      <point x="426" y="54" type="line"/>
      <point x="464" y="336" type="line" smooth="yes"/>
      <point x="466" y="352"/>
      <point x="467" y="370"/>
      <point x="467" y="387" type="curve" smooth="yes"/>
      <point x="467" y="469"/>
      <point x="430" y="511"/>
      <point x="346" y="511" type="curve" smooth="yes"/>
      <point x="292" y="511"/>
      <point x="234" y="479"/>
      <point x="193" y="445" type="curve"/>
      <point x="193" y="466"/>
      <point x="191" y="487"/>
      <point x="185" y="508" type="curve"/>
      <point x="64" y="493" type="line"/>
      <point x="77" y="473"/>
      <point x="78" y="437"/>
      <point x="78" y="414" type="curve" smooth="yes"/>
      <point x="78" y="394"/>
      <point x="78" y="375"/>
      <point x="75" y="356" type="curve" smooth="yes"/>
      <point x="32" y="39" type="line" smooth="yes"/>
      <point x="22" y="-37"/>
      <point x="1" y="-128"/>
    </contour>
  </outline>
</glyph>
<glyph name="circumflex" format="2">
  <advance width="293"/>
  <unicode hex="02C6"/>
  <note>
circumflex
</note>
  <anchor x="180" y="497" name="_top"/>
  <outline>
    <contour>
      <point x="202" y="643" type="line"/>
      <point x="252" y="579" type="line"/>
      <point x="340" y="579" type="line"/>
      <point x="261" y="724" type="line"/>
      <point x="163" y="724" type="line"/>
      <point x="47" y="579" type="line"/>
      <point x="133" y="579" type="line"/>
    </contour>
  </outline>
</glyph>
<glyph name="breve" format="2">
  <advance width="301"/>
  <unicode hex="02D8"/>
  <note>
breve
</note>
  <anchor x="185" y="497" name="_top"/>
  <outline>
    <contour>
      <point x="369" y="732" type="curve"/>
      <point x="300" y="732" type="line"/>
      <point x="284" y="687"/>
      <point x="256" y="662"/>
      <point x="208" y="662" type="curve" smooth="yes"/>
      <point x="159" y="662"/>
      <point x="140" y="686"/>
      <point x="135" y="732" type="curve"/>
      <point x="68" y="732" type="line"/>
      <point x="63" y="641"/>
      <point x="98" y="572"/>
      <point x="196" y="572" type="curve" smooth="yes"/>
      <point x="300" y="572"/>
      <point x="344" y="639"/>
    </contour>
  </outline>
</glyph>
<glyph name="ogonek" format="2">
  <advance width="279"/>
  <unicode hex="02DB"/>
  <note>
ogonek
</note>
  <anchor x="137" y="0" name="_ogonek"/>
  <outline>
    <contour>
      <point x="224" y="14" type="curve"/>
      <point x="192" y="33" type="line"/>
      <point x="116" y="21"/>
      <point x="-25" y="-42"/>
      <point x="-25" y="-134" type="curve" smooth="yes"/>
      <point x="-25" y="-188"/>
      <point x="18" y="-211"/>
      <point x="67" y="-211" type="curve" smooth="yes"/>
      <point x="122" y="-211"/>
      <point x="174" y="-185"/>
      <point x="217" y="-154" type="curve"/>
      <point x="201" y="-104" type="line"/>
      <point x="179" y="-118"/>
      <point x="139" y="-140"/>
      <point x="113" y="-140" type="curve" smooth="yes"/>
      <point x="93" y="-140"/>
      <point x="76" y="-132"/>
      <point x="76" y="-109" type="curve" smooth="yes"/>
      <point x="76" y="-52"/>
      <point x="171" y="-5"/>
    </contour>
  </outline>
</glyph>
<glyph name="slashshortcomb" format="2">
  <unicode hex="0337"/>
  <anchor x="141" y="352" name="_center"/>
  <outline>
    <contour>
      <point x="3" y="246" type="line"/>
      <point x="265" y="360" type="line"/>
      <point x="279" y="458" type="line"/>
      <point x="17" y="343" type="line"/>
    </contour>
  </outline>
</glyph>
<glyph name="pi" format="2">
  <advance width="669"/>
  <unicode hex="03C0"/>
  <note>
pi
</note>
  <outline>
    <contour>
      <point x="321" y="439" type="line"/>
      <point x="204" y="439" type="line"/>
      <point x="180" y="257" type="line" smooth="yes"/>
      <point x="160" y="115"/>
      <point x="145" y="83"/>
      <point x="55" y="26" type="curve"/>
      <point x="82" y="-30" type="line"/>
      <point x="253" y="20"/>
      <point x="275" y="108"/>
      <point x="308" y="347" type="curve" smooth="yes"/>
    </contour>
    <contour>
      <point x="538" y="439" type="curve"/>
      <point x="420" y="439" type="line"/>
      <point x="396" y="338"/>
      <point x="368" y="206"/>
      <point x="368" y="133" type="curve" smooth="yes"/>
      <point x="368" y="44"/>
      <point x="400" y="-5"/>
      <point x="488" y="-5" type="curve" smooth="yes"/>
      <point x="524" y="-5"/>
      <point x="567" y="11"/>
      <point x="594" y="28" type="curve"/>
      <point x="575" y="91" type="line"/>
      <point x="561" y="86"/>
      <point x="547" y="84"/>
      <point x="536" y="84" type="curve" smooth="yes"/>
      <point x="499" y="84"/>
      <point x="485" y="113"/>
      <point x="485" y="161" type="curve" smooth="yes"/>
      <point x="485" y="230"/>
      <point x="513" y="341"/>
    </contour>
    <contour>
      <point x="684" y="462" type="curve"/>
      <point x="656" y="519" type="line"/>
      <point x="621" y="500"/>
      <point x="590" y="497"/>
      <point x="554" y="497" type="curve" smooth="yes"/>
      <point x="214" y="497" type="line" smooth="yes"/>
      <point x="117" y="497"/>
      <point x="43" y="422"/>
      <point x="27" y="342" type="curve"/>
      <point x="92" y="326" type="line"/>
      <point x="110" y="372"/>
      <point x="141" y="407"/>
      <point x="188" y="407" type="curve" smooth="yes"/>
      <point x="551" y="407" type="line" smooth="yes"/>
      <point x="596" y="407"/>
      <point x="651" y="422"/>
    </contour>
  </outline>
</glyph>
<glyph name="endash" format="2">
  <advance width="477"/>
  <unicode hex="2013"/>
  <note>
endash
</note>
  <outline>
    <contour>
      <point x="-5" y="211" type="line"/>
      <point x="471" y="211" type="line"/>
      <point x="485" y="305" type="line"/>
      <point x="9" y="305" type="line"/>
    </contour>
  </outline>
</glyph>
<glyph name="emdash" format="2">
  <advance width="827"/>
  <unicode hex="2014"/>
  <note>
emdash
</note>
  <outline>
    <contour>
      <point x="-5" y="211" type="line"/>
      <point x="821" y="211" type="line"/>
      <point x="835" y="305" type="line"/>
      <point x="9" y="305" type="line"/>
    </contour>
  </outline>
</glyph>
<glyph name="quoteleft" format="2">
  <advance width="242"/>
  <unicode hex="2018"/>
  <note>
quoteleft
</note>
  <outline>
    <contour>
      <point x="174" y="738" type="line"/>
      <point x="111" y="697"/>
      <point x="33" y="624"/>
      <point x="33" y="544" type="curve" smooth="yes"/>
      <point x="33" y="501"/>
      <point x="65" y="467"/>
      <point x="110" y="467" type="curve" smooth="yes"/>
      <point x="151" y="467"/>
      <point x="189" y="500"/>
      <point x="189" y="546" type="curve" smooth="yes"/>
      <point x="189" y="591"/>
      <point x="153" y="603"/>
      <point x="153" y="621" type="curve" smooth="yes"/>
      <point x="153" y="645"/>
      <point x="191" y="684"/>
      <point x="209" y="698" type="curve"/>
    </contour>
  </outline>
</glyph>
<glyph name="quoteright" format="2">
  <advance width="242"/>
  <unicode hex="2019"/>
  <note>
quoteright
</note>
  <outline>
    <contour>
      <point x="209" y="661" type="curve" smooth="yes"/>
      <point x="209" y="704"/>
      <point x="178" y="738"/>
      <point x="132" y="738" type="curve" smooth="yes"/>
      <point x="91" y="738"/>
      <point x="53" y="704"/>
      <point x="53" y="659" type="curve" smooth="yes"/>
      <point x="53" y="614"/>
      <point x="89" y="602"/>
      <point x="89" y="584" type="curve" smooth="yes"/>
      <point x="89" y="560"/>
      <point x="51" y="521"/>
      <point x="33" y="506" type="curve"/>
      <point x="68" y="467" type="line"/>
      <point x="131" y="508"/>
      <point x="209" y="580"/>
    </contour>
  </outline>
</glyph>
<glyph name="ellipsis" format="2">
  <advance width="825"/>
  <unicode hex="2026"/>
  <note>
ellipsis
</note>
  <outline>
    <contour>
      <point x="245" y="76" type="curve" smooth="yes"/>
      <point x="245" y="114"/>
      <point x="216" y="143"/>
      <point x="177" y="143" type="curve" smooth="yes"/>
      <point x="132" y="143"/>
      <point x="88" y="102"/>
      <point x="88" y="54" type="curve" smooth="yes"/>
      <point x="88" y="17"/>
      <point x="117" y="-12"/>
      <point x="155" y="-12" type="curve" smooth="yes"/>
      <point x="202" y="-12"/>
      <point x="245" y="29"/>
    </contour>
    <contour>
      <point x="492" y="76" type="curve" smooth="yes"/>
      <point x="492" y="114"/>
      <point x="464" y="143"/>
      <point x="425" y="143" type="curve" smooth="yes"/>
      <point x="378" y="143"/>
      <point x="336" y="102"/>
      <point x="336" y="54" type="curve" smooth="yes"/>
      <point x="336" y="17"/>
      <point x="364" y="-12"/>
      <point x="403" y="-12" type="curve" smooth="yes"/>
      <point x="450" y="-12"/>
      <point x="492" y="29"/>
    </contour>
    <contour>
      <point x="740" y="76" type="curve" smooth="yes"/>
      <point x="740" y="114"/>
      <point x="711" y="143"/>
      <point x="673" y="143" type="curve" smooth="yes"/>
      <point x="626" y="143"/>
      <point x="583" y="102"/>
      <point x="583" y="54" type="curve" smooth="yes"/>
      <point x="583" y="17"/>
      <point x="612" y="-12"/>
      <point x="651" y="-12" type="curve" smooth="yes"/>
      <point x="697" y="-12"/>
      <point x="740" y="29"/>
    </contour>
  </outline>
</glyph>
<glyph name="minute" format="2">
  <advance width="295"/>
  <unicode hex="2032"/>
  <outline>
    <contour>
      <point x="169" y="705" type="line"/>
      <point x="94" y="520" type="line"/>
      <point x="197" y="520" type="line"/>
      <point x="314" y="705" type="line"/>
    </contour>
  </outline>
</glyph>
<glyph name="fraction" format="2">
  <advance width="172"/>
  <unicode hex="2044"/>
  <note>
fraction
</note>
  <outline>
    <contour>
      <point x="292" y="732" type="line"/>
      <point x="-181" y="0" type="line"/>
      <point x="-88" y="0" type="line"/>
      <point x="386" y="732" type="line"/>
    </contour>
  </outline>
</glyph>
<glyph name="commercialMinusSign" format="2">
  <advance width="467"/>
  <unicode hex="2052"/>
  <outline>
    <contour>
      <point x="389" y="732" type="line"/>
      <point x="17" y="0" type="line"/>
      <point x="110" y="0" type="line"/>
      <point x="483" y="732" type="line"/>
    </contour>
    <contour>
      <point x="271" y="675" type="curve" smooth="yes"/>
      <point x="271" y="713"/>
      <point x="243" y="742"/>
      <point x="204" y="742" type="curve" smooth="yes"/>
      <point x="157" y="742"/>
      <point x="115" y="701"/>
      <point x="115" y="653" type="curve" smooth="yes"/>
      <point x="115" y="616"/>
      <point x="143" y="587"/>
      <point x="182" y="587" type="curve" smooth="yes"/>
      <point x="229" y="587"/>
      <point x="271" y="628"/>
    </contour>
    <contour>
      <point x="383" y="76" type="curve" smooth="yes"/>
      <point x="383" y="114"/>
      <point x="355" y="143"/>
      <point x="316" y="143" type="curve" smooth="yes"/>
      <point x="269" y="143"/>
      <point x="227" y="102"/>
      <point x="227" y="54" type="curve" smooth="yes"/>
      <point x="227" y="17"/>
      <point x="255" y="-12"/>
      <point x="294" y="-12" type="curve" smooth="yes"/>
      <point x="341" y="-12"/>
      <point x="383" y="29"/>
    </contour>
  </outline>
</glyph>
<glyph name="fivesuperior" format="2">
  <advance width="455"/>
  <unicode hex="2075"/>
  <outline>
    <contour>
      <point x="235" y="925" type="line"/>
      <point x="139" y="707" type="line"/>
      <point x="260" y="697"/>
      <point x="304" y="663"/>
      <point x="304" y="612" type="curve" smooth="yes"/>
      <point x="304" y="536"/>
      <point x="240" y="499"/>
      <point x="149" y="499" type="curve" smooth="yes"/>
      <point x="131" y="499"/>
      <point x="111" y="500"/>
      <point x="90" y="503" type="curve"/>
      <point x="69" y="433" type="line"/>
      <point x="99" y="427"/>
      <point x="129" y="424"/>
      <point x="158" y="424" type="curve" smooth="yes"/>
      <point x="298" y="424"/>
      <point x="420" y="498"/>
      <point x="420" y="626" type="curve" smooth="yes"/>
      <point x="420" y="689"/>
      <point x="378" y="748"/>
      <point x="251" y="769" type="curve"/>
      <point x="281" y="830" type="line"/>
      <point x="473" y="830" type="line"/>
      <point x="512" y="925" type="line"/>
    </contour>
  </outline>
</glyph>
<glyph name="sixsuperior" format="2">
  <advance width="455"/>
  <unicode hex="2076"/>
  <outline>
    <contour>
      <point x="451" y="950" type="line"/>
      <point x="266" y="903"/>
      <point x="85" y="750"/>
      <point x="85" y="569" type="curve" smooth="yes"/>
      <point x="85" y="469"/>
      <point x="153" y="425"/>
      <point x="232" y="425" type="curve" smooth="yes"/>
      <point x="378" y="425"/>
      <point x="458" y="532"/>
      <point x="458" y="621" type="curve" smooth="yes"/>
      <point x="458" y="684"/>
      <point x="418" y="739"/>
      <point x="333" y="739" type="curve" smooth="yes"/>
      <point x="298" y="739"/>
      <point x="260" y="730"/>
      <point x="220" y="710" type="curve"/>
      <point x="196" y="632" type="line"/>
      <point x="228" y="650"/>
      <point x="261" y="661"/>
      <point x="287" y="661" type="curve" smooth="yes"/>
      <point x="327" y="661"/>
      <point x="343" y="634"/>
      <point x="343" y="602" type="curve" smooth="yes"/>
      <point x="343" y="550"/>
      <point x="310" y="497"/>
      <point x="252" y="497" type="curve" smooth="yes"/>
      <point x="218" y="497"/>
      <point x="198" y="517"/>
      <point x="198" y="565" type="curve" smooth="yes"/>
      <point x="198" y="711"/>
      <point x="307" y="821"/>
      <point x="471" y="888" type="curve"/>
    </contour>
  </outline>
</glyph>
<glyph name="sevensuperior" format="2">
  <advance width="455"/>
  <unicode hex="2077"/>
  <outline>
    <contour>
      <point x="188" y="925" type="line"/>
      <point x="145" y="830" type="line"/>
      <point x="362" y="830" type="line"/>
      <point x="93" y="432" type="line"/>
      <point x="212" y="432" type="line"/>
      <point x="488" y="880" type="line"/>
      <point x="495" y="925" type="line"/>
    </contour>
  </outline>
</glyph>
<glyph name="nmod" format="2">
  <advance width="377"/>
  <unicode hex="207F"/>
  <outline>
    <contour>
      <point x="179" y="727" type="curve"/>
      <point x="96" y="718" type="line"/>
      <point x="103" y="707"/>
      <point x="105" y="686"/>
      <point x="105" y="666" type="curve" smooth="yes"/>
      <point x="105" y="652"/>
      <point x="104" y="638"/>
      <point x="103" y="629" type="curve" smooth="yes"/>
      <point x="71" y="398" type="line"/>
      <point x="149" y="398" type="line"/>
      <point x="182" y="632" type="line"/>
      <point x="197" y="647"/>
      <point x="242" y="668"/>
      <point x="262" y="668" type="curve" smooth="yes"/>
      <point x="293" y="668"/>
      <point x="301" y="650"/>
      <point x="301" y="628" type="curve" smooth="yes"/>
      <point x="301" y="622"/>
      <point x="300" y="615"/>
      <point x="299" y="608" type="curve" smooth="yes"/>
      <point x="270" y="398" type="line"/>
      <point x="348" y="398" type="line"/>
      <point x="378" y="616" type="line" smooth="yes"/>
      <point x="380" y="627"/>
      <point x="381" y="638"/>
      <point x="381" y="648" type="curve" smooth="yes"/>
      <point x="381" y="697"/>
      <point x="358" y="729"/>
      <point x="293" y="729" type="curve" smooth="yes"/>
      <point x="258" y="729"/>
      <point x="213" y="709"/>
      <point x="184" y="686" type="curve"/>
      <point x="184" y="700"/>
      <point x="182" y="715"/>
    </contour>
  </outline>
</glyph>
<glyph name="colonsign" format="2">
  <advance width="653"/>
  <unicode hex="20A1"/>
  <outline>
    <contour>
      <point x="49" y="276" type="curve" smooth="yes"/>
      <point x="49" y="87"/>
      <point x="160" y="-12"/>
      <point x="313" y="-12" type="curve" smooth="yes"/>
      <point x="384" y="-12"/>
      <point x="455" y="11"/>
      <point x="532" y="59" type="curve"/>
      <point x="493" y="140" type="line"/>
      <point x="433" y="102"/>
      <point x="376" y="85"/>
      <point x="328" y="85" type="curve" smooth="yes"/>
      <point x="247" y="85"/>
      <point x="197" y="148"/>
      <point x="197" y="272" type="curve" smooth="yes"/>
      <point x="197" y="437"/>
      <point x="273" y="609"/>
      <point x="420" y="609" type="curve" smooth="yes"/>
      <point x="470" y="609"/>
      <point x="523" y="600"/>
      <point x="565" y="562" type="curve"/>
      <point x="607" y="666" type="line"/>
      <point x="558" y="693"/>
      <point x="494" y="706"/>
      <point x="439" y="706" type="curve" smooth="yes"/>
      <point x="211" y="706"/>
      <point x="49" y="516"/>
    </contour>
    <contour>
      <point x="83" y="-36" type="line"/>
      <point x="150" y="-76" type="line"/>
      <point x="566" y="768" type="line"/>
      <point x="499" y="808" type="line"/>
    </contour>
    <contour>
      <point x="198" y="-105" type="line"/>
      <point x="264" y="-146" type="line"/>
      <point x="680" y="698" type="line"/>
      <point x="613" y="739" type="line"/>
    </contour>
  </outline>
</glyph>
<glyph name="franc" format="2">
  <advance width="529"/>
  <unicode hex="20A3"/>
  <outline>
    <contour>
      <point x="127" y="706" type="line"/>
      <point x="132" y="645" type="line"/>
      <point x="41" y="0" type="line"/>
      <point x="180" y="0" type="line"/>
      <point x="224" y="311" type="line"/>
      <point x="437" y="311" type="line"/>
      <point x="451" y="410" type="line"/>
      <point x="238" y="410" type="line"/>
      <point x="266" y="607" type="line"/>
      <point x="542" y="607" type="line"/>
      <point x="556" y="706" type="line"/>
    </contour>
    <contour>
      <point x="16" y="206" type="line"/>
      <point x="-8" y="124" type="line"/>
      <point x="350" y="124" type="line"/>
      <point x="374" y="206" type="line"/>
    </contour>
  </outline>
</glyph>
<glyph name="euro" format="2">
  <advance width="655"/>
  <unicode hex="20AC"/>
  <note>
Euro
</note>
  <outline>
    <contour>
      <point x="109" y="274" type="curve" smooth="yes"/>
      <point x="109" y="87"/>
      <point x="222" y="-12"/>
      <point x="374" y="-12" type="curve" smooth="yes"/>
      <point x="445" y="-12"/>
      <point x="516" y="11"/>
      <point x="593" y="59" type="curve"/>
      <point x="554" y="140" type="line"/>
      <point x="494" y="102"/>
      <point x="437" y="85"/>
      <point x="389" y="85" type="curve" smooth="yes"/>
      <point x="308" y="85"/>
      <point x="258" y="148"/>
      <point x="258" y="272" type="curve" smooth="yes"/>
      <point x="258" y="437"/>
      <point x="333" y="609"/>
      <point x="481" y="609" type="curve" smooth="yes"/>
      <point x="531" y="609"/>
      <point x="581" y="587"/>
      <point x="623" y="542" type="curve"/>
      <point x="668" y="666" type="line"/>
      <point x="619" y="693"/>
      <point x="554" y="706"/>
      <point x="499" y="706" type="curve" smooth="yes"/>
      <point x="271" y="706"/>
      <point x="109" y="514"/>
    </contour>
    <contour>
      <point x="81" y="446" type="line"/>
      <point x="56" y="364" type="line"/>
      <point x="569" y="364" type="line"/>
      <point x="594" y="446" type="line"/>
    </contour>
    <contour>
      <point x="39" y="306" type="line"/>
      <point x="14" y="224" type="line"/>
      <point x="527" y="224" type="line"/>
      <point x="552" y="306" type="line"/>
    </contour>
  </outline>
</glyph>
<glyph name="peso" format="2">
  <advance width="658"/>
  <unicode hex="20B1"/>
  <outline>
    <contour>
      <point x="133" y="706" type="line"/>
      <point x="139" y="645" type="line"/>
      <point x="48" y="0" type="line"/>
      <point x="185" y="0" type="line"/>
      <point x="220" y="248" type="line"/>
      <point x="302" y="248" type="line" smooth="yes"/>
      <point x="466" y="248"/>
      <point x="601" y="351"/>
      <point x="601" y="520" type="curve" smooth="yes"/>
      <point x="601" y="653"/>
      <point x="497" y="706"/>
      <point x="365" y="706" type="curve" smooth="yes"/>
    </contour>
    <contour>
      <point x="272" y="607" type="line"/>
      <point x="357" y="607" type="line" smooth="yes"/>
      <point x="423" y="607"/>
      <point x="454" y="564"/>
      <point x="454" y="505" type="curve" smooth="yes"/>
      <point x="454" y="423"/>
      <point x="403" y="345"/>
      <point x="319" y="345" type="curve" smooth="yes"/>
      <point x="235" y="345" type="line"/>
    </contour>
    <contour>
      <point x="76" y="572" type="line"/>
      <point x="52" y="496" type="line"/>
      <point x="658" y="496" type="line"/>
      <point x="682" y="572" type="line"/>
    </contour>
    <contour>
      <point x="61" y="459" type="line"/>
      <point x="36" y="382" type="line"/>
      <point x="642" y="382" type="line"/>
      <point x="667" y="459" type="line"/>
    </contour>
  </outline>
</glyph>
<glyph name="guarani" format="2">
  <advance width="707"/>
  <unicode hex="20B2"/>
  <outline>
    <contour>
      <point x="450" y="706" type="curve" smooth="yes"/>
      <point x="220" y="706"/>
      <point x="67" y="507"/>
      <point x="67" y="267" type="curve" smooth="yes"/>
      <point x="67" y="125"/>
      <point x="129" y="-11"/>
      <point x="297" y="-11" type="curve" smooth="yes"/>
      <point x="379" y="-11"/>
      <point x="443" y="14"/>
      <point x="517" y="75" type="curve"/>
      <point x="540" y="-1" type="line"/>
      <point x="611" y="-1" type="line"/>
      <point x="617" y="68"/>
      <point x="625" y="137"/>
      <point x="636" y="206" type="curve" smooth="yes"/>
      <point x="661" y="370" type="line"/>
      <point x="383" y="370" type="line"/>
      <point x="357" y="282" type="line"/>
      <point x="509" y="282" type="line"/>
      <point x="503" y="240" type="line" smooth="yes"/>
      <point x="490" y="144"/>
      <point x="418" y="85"/>
      <point x="334" y="85" type="curve" smooth="yes"/>
      <point x="236" y="85"/>
      <point x="214" y="192"/>
      <point x="214" y="280" type="curve" smooth="yes"/>
      <point x="214" y="452"/>
      <point x="287" y="612"/>
      <point x="427" y="612" type="curve" smooth="yes"/>
      <point x="512" y="612"/>
      <point x="544" y="592"/>
      <point x="601" y="545" type="curve"/>
      <point x="676" y="627" type="line"/>
      <point x="622" y="677"/>
      <point x="528" y="706"/>
    </contour>
    <contour>
      <point x="281" y="-106" type="line"/>
      <point x="361" y="-119" type="line"/>
      <point x="489" y="795" type="line"/>
      <point x="409" y="808" type="line"/>
    </contour>
  </outline>
</glyph>
<glyph name="rupeeIndian" format="2">
  <advance width="615"/>
  <unicode hex="20B9"/>
  <outline>
    <contour>
      <point x="260" y="706" type="curve" smooth="yes"/>
      <point x="157" y="706" type="line"/>
      <point x="145" y="624" type="line"/>
      <point x="254" y="624" type="line" smooth="yes"/>
      <point x="318" y="624"/>
      <point x="342" y="586"/>
      <point x="342" y="530" type="curve" smooth="yes"/>
      <point x="342" y="444"/>
      <point x="306" y="385"/>
      <point x="219" y="385" type="curve" smooth="yes"/>
      <point x="112" y="385" type="line"/>
      <point x="98" y="288" type="line"/>
      <point x="203" y="288" type="line" smooth="yes"/>
      <point x="370" y="288"/>
      <point x="491" y="383"/>
      <point x="491" y="548" type="curve" smooth="yes"/>
      <point x="491" y="677"/>
      <point x="392" y="706"/>
    </contour>
    <contour>
      <point x="230" y="347" type="line"/>
      <point x="98" y="288" type="line"/>
      <point x="258" y="0" type="line"/>
      <point x="420" y="0" type="line"/>
    </contour>
    <contour>
      <point x="157" y="706" type="line"/>
      <point x="145" y="624" type="line"/>
      <point x="606" y="624" type="line"/>
      <point x="631" y="706" type="line"/>
    </contour>
    <contour>
      <point x="135" y="547" type="line"/>
      <point x="124" y="465" type="line"/>
      <point x="559" y="465" type="line"/>
      <point x="583" y="547" type="line"/>
    </contour>
  </outline>
</glyph>
<glyph name="numero" format="2">
  <advance width="1106"/>
  <unicode hex="2116"/>
  <outline>
    <contour>
      <point x="301" y="706" type="line"/>
      <point x="137" y="706" type="line"/>
      <point x="142" y="645" type="line"/>
      <point x="52" y="0" type="line"/>
      <point x="163" y="0" type="line"/>
      <point x="229" y="472" type="line" smooth="yes"/>
      <point x="232" y="494"/>
      <point x="231" y="517"/>
      <point x="232" y="539" type="curve"/>
      <point x="242" y="517"/>
      <point x="254" y="494"/>
      <point x="265" y="472" type="curve" smooth="yes"/>
      <point x="507" y="-5" type="line"/>
      <point x="615" y="-5" type="line"/>
      <point x="715" y="706" type="line"/>
      <point x="604" y="706" type="line"/>
      <point x="547" y="304" type="line" smooth="yes"/>
      <point x="544" y="279"/>
      <point x="544" y="252"/>
      <point x="543" y="227" type="curve"/>
      <point x="533" y="249"/>
      <point x="522" y="271"/>
      <point x="511" y="293" type="curve" smooth="yes"/>
    </contour>
    <contour>
      <point x="1046" y="321" type="curve" smooth="yes"/>
      <point x="1046" y="405"/>
      <point x="998" y="463"/>
      <point x="911" y="463" type="curve" smooth="yes"/>
      <point x="797" y="463"/>
      <point x="729" y="362"/>
      <point x="729" y="256" type="curve" smooth="yes"/>
      <point x="729" y="171"/>
      <point x="777" y="114"/>
      <point x="863" y="114" type="curve" smooth="yes"/>
      <point x="978" y="114"/>
      <point x="1046" y="213"/>
    </contour>
    <contour>
      <point x="961" y="324" type="curve" smooth="yes"/>
      <point x="961" y="269"/>
      <point x="942" y="169"/>
      <point x="872" y="169" type="curve" smooth="yes"/>
      <point x="824" y="169"/>
      <point x="813" y="213"/>
      <point x="813" y="253" type="curve" smooth="yes"/>
      <point x="813" y="307"/>
      <point x="832" y="408"/>
      <point x="903" y="408" type="curve" smooth="yes"/>
      <point x="950" y="408"/>
      <point x="961" y="363"/>
    </contour>
    <contour>
      <point x="724" y="0" type="line"/>
      <point x="971" y="0" type="line"/>
      <point x="979" y="58" type="line"/>
      <point x="732" y="58" type="line"/>
    </contour>
  </outline>
</glyph>
<glyph name="published" format="2">
  <advance width="644"/>
  <unicode hex="2117"/>
  <outline>
    <contour>
      <point x="599" y="250" type="curve" smooth="yes"/>
      <point x="599" y="402"/>
      <point x="474" y="527"/>
      <point x="322" y="527" type="curve" smooth="yes"/>
      <point x="169" y="527"/>
      <point x="45" y="403"/>
      <point x="45" y="250" type="curve" smooth="yes"/>
      <point x="45" y="97"/>
      <point x="169" y="-27"/>
      <point x="322" y="-27" type="curve" smooth="yes"/>
      <point x="474" y="-27"/>
      <point x="599" y="98"/>
    </contour>
    <contour>
      <point x="559" y="250" type="curve" smooth="yes"/>
      <point x="559" y="119"/>
      <point x="453" y="13"/>
      <point x="322" y="13" type="curve" smooth="yes"/>
      <point x="191" y="13"/>
      <point x="85" y="119"/>
      <point x="85" y="250" type="curve" smooth="yes"/>
      <point x="85" y="381"/>
      <point x="191" y="487"/>
      <point x="322" y="487" type="curve" smooth="yes"/>
      <point x="453" y="487"/>
      <point x="559" y="381"/>
    </contour>
    <contour>
      <point x="215" y="421" type="line"/>
      <point x="222" y="383" type="line"/>
      <point x="222" y="85" type="line"/>
      <point x="314" y="85" type="line"/>
      <point x="314" y="220" type="line"/>
      <point x="356" y="220" type="line" smooth="yes"/>
      <point x="418" y="220"/>
      <point x="477" y="250"/>
      <point x="477" y="320" type="curve" smooth="yes"/>
      <point x="477" y="396"/>
      <point x="421" y="421"/>
      <point x="355" y="421" type="curve" smooth="yes"/>
    </contour>
    <contour>
      <point x="315" y="365" type="line"/>
      <point x="337" y="365" type="line" smooth="yes"/>
      <point x="372" y="365"/>
      <point x="384" y="354"/>
      <point x="384" y="320" type="curve" smooth="yes"/>
      <point x="384" y="288"/>
      <point x="371" y="274"/>
      <point x="337" y="274" type="curve" smooth="yes"/>
      <point x="315" y="274" type="line"/>
    </contour>
  </outline>
</glyph>
<glyph name="product" format="2">
  <advance width="833"/>
  <unicode hex="220F"/>
  <note>
product
</note>
  <outline>
    <contour>
      <point x="612" y="633" type="line"/>
      <point x="490" y="-229" type="line"/>
      <point x="625" y="-229" type="line"/>
      <point x="747" y="633" type="line"/>
      <point x="849" y="633" type="line"/>
      <point x="863" y="732" type="line"/>
      <point x="106" y="732" type="line"/>
      <point x="92" y="633" type="line"/>
      <point x="192" y="633" type="line"/>
      <point x="70" y="-229" type="line"/>
      <point x="206" y="-229" type="line"/>
      <point x="328" y="633" type="line"/>
    </contour>
  </outline>
</glyph>
<glyph name="summation" format="2">
  <advance width="726"/>
  <unicode hex="2211"/>
  <note>
summation
</note>
  <outline>
    <contour>
      <point x="7" y="-99" type="line"/>
      <point x="-12" y="-229" type="line"/>
      <point x="602" y="-229" type="line"/>
      <point x="622" y="-92" type="line"/>
      <point x="127" y="-92" type="line"/>
      <point x="476" y="310" type="line"/>
      <point x="271" y="633" type="line"/>
      <point x="714" y="633" type="line"/>
      <point x="728" y="732" type="line"/>
      <point x="124" y="732" type="line"/>
      <point x="110" y="633" type="line"/>
      <point x="332" y="277" type="line"/>
    </contour>
  </outline>
</glyph>
<glyph name="minus" format="2">
  <advance width="636"/>
  <unicode hex="2212"/>
  <note>
minus
</note>
  <outline>
    <contour>
      <point x="76" y="293" type="line"/>
      <point x="64" y="205" type="line"/>
      <point x="560" y="205" type="line"/>
      <point x="572" y="293" type="line"/>
    </contour>
  </outline>
</glyph>
<glyph name="radical" format="2">
  <advance width="605"/>
  <unicode hex="221A"/>
  <note>
radical
</note>
  <outline>
    <contour>
      <point x="33" y="206" type="line"/>
      <point x="112" y="-230" type="line"/>
      <point x="222" y="-230" type="line"/>
      <point x="732" y="968" type="line"/>
      <point x="639" y="968" type="line"/>
      <point x="195" y="-78" type="line"/>
      <point x="125" y="324" type="line"/>
      <point x="-75" y="257" type="line"/>
      <point x="-61" y="176" type="line"/>
    </contour>
  </outline>
</glyph>
<glyph name="infinity" format="2">
  <advance width="812"/>
  <unicode hex="221E"/>
  <note>
infinity
</note>
  <outline>
    <contour>
      <point x="260" y="424" type="curve" smooth="yes"/>
      <point x="146" y="424"/>
      <point x="68" y="333"/>
      <point x="68" y="217" type="curve" smooth="yes"/>
      <point x="68" y="133"/>
      <point x="117" y="74"/>
      <point x="210" y="74" type="curve" smooth="yes"/>
      <point x="282" y="74"/>
      <point x="345" y="130"/>
      <point x="396" y="181" type="curve"/>
      <point x="433" y="130"/>
      <point x="480" y="74"/>
      <point x="552" y="74" type="curve" smooth="yes"/>
      <point x="666" y="74"/>
      <point x="744" y="165"/>
      <point x="744" y="281" type="curve" smooth="yes"/>
      <point x="744" y="365"/>
      <point x="695" y="424"/>
      <point x="602" y="424" type="curve" smooth="yes"/>
      <point x="530" y="424"/>
      <point x="467" y="368"/>
      <point x="416" y="317" type="curve"/>
      <point x="379" y="368"/>
      <point x="332" y="424"/>
    </contour>
    <contour>
      <point x="243" y="314" type="curve" smooth="yes"/>
      <point x="289" y="314"/>
      <point x="321" y="280"/>
      <point x="346" y="249" type="curve"/>
      <point x="313" y="218"/>
      <point x="271" y="184"/>
      <point x="225" y="184" type="curve" smooth="yes"/>
      <point x="189" y="184"/>
      <point x="168" y="204"/>
      <point x="168" y="236" type="curve" smooth="yes"/>
      <point x="168" y="284"/>
      <point x="198" y="314"/>
    </contour>
    <contour>
      <point x="587" y="314" type="curve" smooth="yes"/>
      <point x="623" y="314"/>
      <point x="644" y="294"/>
      <point x="644" y="262" type="curve" smooth="yes"/>
      <point x="644" y="214"/>
      <point x="614" y="184"/>
      <point x="569" y="184" type="curve" smooth="yes"/>
      <point x="523" y="184"/>
      <point x="491" y="218"/>
      <point x="466" y="249" type="curve"/>
      <point x="499" y="280"/>
      <point x="541" y="314"/>
    </contour>
  </outline>
</glyph>
<glyph name="integral" format="2">
  <advance width="256"/>
  <unicode hex="222B"/>
  <note>
integral
</note>
  <outline>
    <contour>
      <point x="-80" y="-147" type="curve"/>
      <point x="-91" y="-227" type="line"/>
      <point x="67" y="-227"/>
      <point x="141" y="-156"/>
      <point x="161" y="-10" type="curve" smooth="yes"/>
      <point x="240" y="549" type="line" smooth="yes"/>
      <point x="248" y="605"/>
      <point x="271" y="662"/>
      <point x="339" y="662" type="curve"/>
      <point x="350" y="742" type="line"/>
      <point x="191" y="742"/>
      <point x="134" y="666"/>
      <point x="115" y="525" type="curve" smooth="yes"/>
      <point x="36" y="-34" type="line" smooth="yes"/>
      <point x="28" y="-93"/>
      <point x="-12" y="-147"/>
    </contour>
  </outline>
</glyph>
<glyph name="lessequal" format="2">
  <advance width="630"/>
  <unicode hex="2264"/>
  <note>
lessequal
</note>
  <outline>
    <contour>
      <point x="77" y="335" type="line"/>
      <point x="70" y="283" type="line"/>
      <point x="543" y="106" type="line"/>
      <point x="556" y="198" type="line"/>
      <point x="217" y="309" type="line"/>
      <point x="587" y="421" type="line"/>
      <point x="600" y="511" type="line"/>
    </contour>
    <contour>
      <point x="43" y="86" type="line"/>
      <point x="31" y="1" type="line"/>
      <point x="529" y="1" type="line"/>
      <point x="541" y="86" type="line"/>
    </contour>
  </outline>
</glyph>
<glyph name="greaterequal" format="2">
  <advance width="630"/>
  <unicode hex="2265"/>
  <note>
greaterequal
</note>
  <outline>
    <contour>
      <point x="58" y="198" type="line"/>
      <point x="45" y="106" type="line"/>
      <point x="569" y="283" type="line"/>
      <point x="576" y="335" type="line"/>
      <point x="102" y="511" type="line"/>
      <point x="89" y="421" type="line"/>
      <point x="428" y="309" type="line"/>
    </contour>
    <contour>
      <point x="42" y="86" type="line"/>
      <point x="30" y="1" type="line"/>
      <point x="527" y="1" type="line"/>
      <point x="539" y="86" type="line"/>
    </contour>
  </outline>
</glyph>
<glyph name="fl" format="2">
  <advance width="529"/>
  <unicode hex="FB02"/>
  <note>
fl
</note>
  <outline>
    <contour>
      <point x="-104" y="-149" type="curve"/>
      <point x="-120" y="-216" type="line"/>
      <point x="22" y="-260"/>
      <point x="127" y="-203"/>
      <point x="149" y="-47" type="curve" smooth="yes"/>
      <point x="211" y="414" type="line"/>
      <point x="329" y="414" type="line"/>
      <point x="340" y="497" type="line"/>
      <point x="222" y="497" type="line"/>
      <point x="234" y="572"/>
      <point x="254" y="694"/>
      <point x="354" y="694" type="curve" smooth="yes"/>
      <point x="392" y="694"/>
      <point x="412" y="671"/>
      <point x="412" y="633" type="curve" smooth="yes"/>
      <point x="412" y="616"/>
      <point x="400" y="531"/>
      <point x="329" y="0" type="curve"/>
      <point x="456" y="0" type="line"/>
      <point x="453" y="54" type="line"/>
      <point x="549" y="769" type="line"/>
      <point x="452" y="745" type="line"/>
      <point x="430" y="761"/>
      <point x="380" y="776"/>
      <point x="351" y="776" type="curve" smooth="yes"/>
      <point x="185" y="776"/>
      <point x="152" y="660"/>
      <point x="117" y="545" type="curve" smooth="yes"/>
      <point x="102" y="497"/>
      <point x="62" y="497"/>
      <point x="28" y="497" type="curve"/>
      <point x="18" y="414" type="line"/>
      <point x="97" y="414" type="line"/>
      <point x="36" y="-35" type="line" smooth="yes"/>
      <point x="23" y="-127"/>
      <point x="-15" y="-174"/>
    </contour>
  </outline>
</glyph>
<glyph name=".notdef" format="2">
  <advance width="642"/>
  <note>
.notdef
</note>
  <outline>
    <contour>
      <point x="649" y="728" type="line"/>
      <point x="128" y="728" type="line"/>
      <point x="26" y="0" type="line"/>
      <point x="547" y="0" type="line"/>
    </contour>
    <contour>
      <point x="204" y="676" type="line"/>
      <point x="559" y="676" type="line"/>
      <point x="344" y="412" type="line"/>
    </contour>
    <contour>
      <point x="306" y="365" type="line"/>
      <point x="92" y="99" type="line"/>
      <point x="166" y="629" type="line"/>
    </contour>
    <contour>
      <point x="583" y="629" type="line"/>
      <point x="509" y="99" type="line"/>
      <point x="369" y="365" type="line"/>
    </contour>
    <contour>
      <point x="331" y="318" type="line"/>
      <point x="471" y="52" type="line"/>
      <point x="116" y="52" type="line"/>
    </contour>
  </outline>
</glyph>
<glyph name="baraccent" format="2">
  <advance width="411"/>
  <anchor x="214" y="313" name="_center"/>
  <outline>
    <contour>
      <point x="55" y="355" type="line"/>
      <point x="43" y="270" type="line"/>
      <point x="374" y="270" type="line"/>
      <point x="386" y="355" type="line"/>
    </contour>
  </outline>
</glyph>
<glyph name="baraccentlong" format="2">
  <advance width="761"/>
  <anchor x="389" y="313" name="_center"/>
  <outline>
    <contour>
      <point x="55" y="355" type="line"/>
      <point x="43" y="270" type="line"/>
      <point x="724" y="270" type="line"/>
      <point x="736" y="355" type="line"/>
    </contour>
  </outline>
</glyph>
<glyph name="baraccentmedium" format="2">
  <advance width="681"/>
  <anchor x="349" y="313" name="_center"/>
  <outline>
    <contour>
      <point x="55" y="355" type="line"/>
      <point x="43" y="270" type="line"/>
      <point x="644" y="270" type="line"/>
      <point x="656" y="355" type="line"/>
    </contour>
  </outline>
</glyph>
<glyph name="breve.case" format="2">
  <advance width="301"/>
  <anchor x="218" y="732" name="_top"/>
  <outline>
    <contour>
      <point x="396" y="922" type="curve"/>
      <point x="327" y="922" type="line"/>
      <point x="313" y="897"/>
      <point x="286" y="872"/>
      <point x="238" y="872" type="curve" smooth="yes"/>
      <point x="189" y="872"/>
      <point x="169" y="896"/>
      <point x="162" y="922" type="curve"/>
      <point x="95" y="922" type="line"/>
      <point x="93" y="851"/>
      <point x="124" y="782"/>
      <point x="222" y="782" type="curve" smooth="yes"/>
      <point x="326" y="782"/>
      <point x="374" y="849"/>
    </contour>
  </outline>
</glyph>
<glyph name="breveinverted.case" format="2">
  <advance width="301"/>
  <anchor x="218" y="732" name="_top"/>
  <outline>
    <contour>
      <point x="75" y="782" type="curve"/>
      <point x="144" y="782" type="line"/>
      <point x="158" y="807"/>
      <point x="185" y="832"/>
      <point x="233" y="832" type="curve" smooth="yes"/>
      <point x="282" y="832"/>
      <point x="302" y="808"/>
      <point x="309" y="782" type="curve"/>
      <point x="376" y="782" type="line"/>
      <point x="378" y="853"/>
      <point x="347" y="922"/>
      <point x="249" y="922" type="curve" smooth="yes"/>
      <point x="145" y="922"/>
      <point x="97" y="855"/>
    </contour>
  </outline>
</glyph>
<glyph name="brevetilde.case" format="2">
  <advance width="301"/>
  <anchor x="218" y="732" name="_top"/>
  <outline>
    <contour>
      <point x="396" y="922" type="curve"/>
      <point x="327" y="922" type="line"/>
      <point x="313" y="897"/>
      <point x="285" y="872"/>
      <point x="237" y="872" type="curve" smooth="yes"/>
      <point x="188" y="872"/>
      <point x="169" y="896"/>
      <point x="162" y="922" type="curve"/>
      <point x="95" y="922" type="line"/>
      <point x="93" y="851"/>
      <point x="124" y="782"/>
      <point x="222" y="782" type="curve" smooth="yes"/>
      <point x="326" y="782"/>
      <point x="373" y="849"/>
    </contour>
    <contour>
      <point x="416" y="1073" type="curve"/>
      <point x="352" y="1073" type="line"/>
      <point x="348" y="1053"/>
      <point x="334" y="1043"/>
      <point x="317" y="1043" type="curve" smooth="yes"/>
      <point x="279" y="1043"/>
      <point x="267" y="1083"/>
      <point x="212" y="1083" type="curve" smooth="yes"/>
      <point x="144" y="1083"/>
      <point x="109" y="1030"/>
      <point x="100" y="966" type="curve"/>
      <point x="165" y="966" type="line"/>
      <point x="168" y="986"/>
      <point x="182" y="996"/>
      <point x="199" y="996" type="curve" smooth="yes"/>
      <point x="237" y="996"/>
      <point x="248" y="956"/>
      <point x="303" y="956" type="curve" smooth="yes"/>
      <point x="371" y="956"/>
      <point x="407" y="1009"/>
    </contour>
  </outline>
</glyph>
<glyph name="brevetilde" format="2">
  <advance width="301"/>
  <anchor x="185" y="497" name="_top"/>
  <outline>
    <contour>
      <point x="369" y="732" type="curve"/>
      <point x="300" y="732" type="line"/>
      <point x="284" y="687"/>
      <point x="256" y="662"/>
      <point x="208" y="662" type="curve" smooth="yes"/>
      <point x="159" y="662"/>
      <point x="140" y="686"/>
      <point x="135" y="732" type="curve"/>
      <point x="68" y="732" type="line"/>
      <point x="63" y="641"/>
      <point x="98" y="572"/>
      <point x="196" y="572" type="curve" smooth="yes"/>
      <point x="300" y="572"/>
      <point x="344" y="639"/>
    </contour>
    <contour>
      <point x="389" y="882" type="curve"/>
      <point x="325" y="882" type="line"/>
      <point x="321" y="862"/>
      <point x="307" y="852"/>
      <point x="290" y="852" type="curve" smooth="yes"/>
      <point x="252" y="852"/>
      <point x="240" y="892"/>
      <point x="185" y="892" type="curve" smooth="yes"/>
      <point x="117" y="892"/>
      <point x="82" y="839"/>
      <point x="73" y="775" type="curve"/>
      <point x="138" y="775" type="line"/>
      <point x="141" y="795"/>
      <point x="155" y="805"/>
      <point x="172" y="805" type="curve" smooth="yes"/>
      <point x="210" y="805"/>
      <point x="222" y="765"/>
      <point x="277" y="765" type="curve" smooth="yes"/>
      <point x="345" y="765"/>
      <point x="380" y="818"/>
    </contour>
  </outline>
</glyph>
<glyph name="caron.case" format="2">
  <advance width="293"/>
  <anchor x="213" y="732" name="_top"/>
  <outline>
    <contour>
      <point x="234" y="869" type="line"/>
      <point x="182" y="913" type="line"/>
      <point x="94" y="913" type="line"/>
      <point x="175" y="788" type="line"/>
      <point x="273" y="788" type="line"/>
      <point x="387" y="913" type="line"/>
      <point x="301" y="913" type="line"/>
    </contour>
  </outline>
</glyph>
<glyph name="circumflexacute" format="2">
  <advance width="302"/>
  <anchor x="180" y="497" name="_top"/>
  <outline>
    <contour>
      <point x="202" y="643" type="line"/>
      <point x="252" y="579" type="line"/>
      <point x="340" y="579" type="line"/>
      <point x="261" y="724" type="line"/>
      <point x="163" y="724" type="line"/>
      <point x="47" y="579" type="line"/>
      <point x="133" y="579" type="line"/>
    </contour>
    <contour>
      <point x="258" y="892" type="line"/>
      <point x="171" y="767" type="line"/>
      <point x="264" y="767" type="line"/>
      <point x="393" y="892" type="line"/>
    </contour>
  </outline>
</glyph>
<glyph name="circumflexgrave.case" format="2">
  <advance width="293"/>
  <anchor x="216" y="732" name="_top"/>
  <outline>
    <contour>
      <point x="231" y="832" type="line"/>
      <point x="283" y="788" type="line"/>
      <point x="369" y="788" type="line"/>
      <point x="290" y="913" type="line"/>
      <point x="192" y="913" type="line"/>
      <point x="76" y="788" type="line"/>
      <point x="164" y="788" type="line"/>
    </contour>
    <contour>
      <point x="246" y="1050" type="line"/>
      <point x="116" y="1050" type="line"/>
      <point x="201" y="945" type="line"/>
      <point x="289" y="945" type="line"/>
    </contour>
  </outline>
</glyph>
<glyph name="circumflexgrave" format="2">
  <advance width="302"/>
  <anchor x="192" y="497" name="_top"/>
  <outline>
    <contour>
      <point x="214" y="643" type="line"/>
      <point x="263" y="579" type="line"/>
      <point x="349" y="579" type="line"/>
      <point x="273" y="724" type="line"/>
      <point x="175" y="724" type="line"/>
      <point x="56" y="579" type="line"/>
      <point x="144" y="579" type="line"/>
    </contour>
    <contour>
      <point x="226" y="892" type="line"/>
      <point x="91" y="892" type="line"/>
      <point x="184" y="767" type="line"/>
      <point x="277" y="767" type="line"/>
    </contour>
  </outline>
</glyph>
<glyph name="circumflexhook" format="2">
  <advance width="293"/>
  <anchor x="181" y="497" name="_top"/>
  <outline>
    <contour>
      <point x="203" y="643" type="line"/>
      <point x="252" y="579" type="line"/>
      <point x="340" y="579" type="line"/>
      <point x="262" y="724" type="line"/>
      <point x="164" y="724" type="line"/>
      <point x="47" y="579" type="line"/>
      <point x="133" y="579" type="line"/>
    </contour>
    <contour>
      <point x="193" y="754" type="line"/>
      <point x="238" y="754" type="line"/>
      <point x="251" y="796" type="line"/>
      <point x="318" y="798"/>
      <point x="346" y="836"/>
      <point x="346" y="881" type="curve" smooth="yes"/>
      <point x="346" y="923"/>
      <point x="308" y="946"/>
      <point x="260" y="946" type="curve" smooth="yes"/>
      <point x="228" y="946"/>
      <point x="192" y="936"/>
      <point x="163" y="918" type="curve"/>
      <point x="179" y="871" type="line"/>
      <point x="196" y="879"/>
      <point x="216" y="885"/>
      <point x="231" y="885" type="curve" smooth="yes"/>
      <point x="250" y="885"/>
      <point x="261" y="878"/>
      <point x="261" y="863" type="curve" smooth="yes"/>
      <point x="261" y="841"/>
      <point x="244" y="831"/>
      <point x="221" y="831" type="curve" smooth="yes"/>
      <point x="211" y="831"/>
      <point x="200" y="833"/>
      <point x="191" y="836" type="curve"/>
    </contour>
  </outline>
</glyph>
<glyph name="circumflextilde" format="2">
  <advance width="300"/>
  <anchor x="180" y="497" name="_top"/>
  <outline>
    <contour>
      <point x="202" y="643" type="line"/>
      <point x="252" y="579" type="line"/>
      <point x="340" y="579" type="line"/>
      <point x="261" y="724" type="line"/>
      <point x="163" y="724" type="line"/>
      <point x="47" y="579" type="line"/>
      <point x="133" y="579" type="line"/>
    </contour>
    <contour>
      <point x="390" y="882" type="curve"/>
      <point x="326" y="882" type="line"/>
      <point x="322" y="862"/>
      <point x="307" y="852"/>
      <point x="290" y="852" type="curve" smooth="yes"/>
      <point x="252" y="852"/>
      <point x="241" y="892"/>
      <point x="186" y="892" type="curve" smooth="yes"/>
      <point x="118" y="892"/>
      <point x="83" y="839"/>
      <point x="74" y="775" type="curve"/>
      <point x="139" y="775" type="line"/>
      <point x="141" y="795"/>
      <point x="156" y="805"/>
      <point x="173" y="805" type="curve" smooth="yes"/>
      <point x="211" y="805"/>
      <point x="222" y="765"/>
      <point x="277" y="765" type="curve" smooth="yes"/>
      <point x="345" y="765"/>
      <point x="381" y="818"/>
    </contour>
  </outline>
</glyph>
<glyph name="commabelow" format="2">
  <advance width="234"/>
  <anchor x="77" y="0" name="_bottom"/>
  <outline>
    <contour>
      <point x="63" y="-64" type="curve" smooth="yes"/>
      <point x="28" y="-64"/>
      <point x="-3" y="-97"/>
      <point x="-3" y="-134" type="curve" smooth="yes"/>
      <point x="-3" y="-168"/>
      <point x="27" y="-177"/>
      <point x="27" y="-195" type="curve" smooth="yes"/>
      <point x="27" y="-211"/>
      <point x="-3" y="-244"/>
      <point x="-20" y="-258" type="curve"/>
      <point x="8" y="-292" type="line"/>
      <point x="66" y="-254"/>
      <point x="121" y="-192"/>
      <point x="121" y="-128" type="curve" smooth="yes"/>
      <point x="121" y="-94"/>
      <point x="101.005" y="-64"/>
    </contour>
  </outline>
</glyph>
<glyph name="commaturnedabove" format="2">
  <advance width="300"/>
  <anchor x="185" y="497" name="_top"/>
  <outline>
    <contour>
      <point x="197" y="568" type="curve" smooth="yes"/>
      <point x="229" y="568"/>
      <point x="258" y="595"/>
      <point x="262" y="627" type="curve" smooth="yes"/>
      <point x="269" y="672"/>
      <point x="230" y="680"/>
      <point x="233" y="701" type="curve" smooth="yes"/>
      <point x="235" y="718"/>
      <point x="264" y="749"/>
      <point x="280" y="762" type="curve"/>
      <point x="252" y="796" type="line"/>
      <point x="199" y="761"/>
      <point x="149" y="708"/>
      <point x="140" y="646" type="curve" smooth="yes"/>
      <point x="134" y="606"/>
      <point x="154" y="568"/>
    </contour>
  </outline>
</glyph>
<glyph name="dblgrave.case" format="2">
  <advance width="381"/>
  <anchor x="312" y="732" name="_top"/>
  <outline>
    <contour>
      <point x="397" y="923" type="line"/>
      <point x="262" y="923" type="line"/>
      <point x="353" y="779" type="line"/>
      <point x="446" y="779" type="line"/>
    </contour>
    <contour>
      <point x="240" y="923" type="line"/>
      <point x="105" y="923" type="line"/>
      <point x="196" y="779" type="line"/>
      <point x="289" y="779" type="line"/>
    </contour>
  </outline>
</glyph>
<glyph name="dieresis.case" format="2">
  <advance width="297"/>
  <anchor x="217" y="732" name="_top"/>
  <outline>
    <contour>
      <point x="212" y="861" type="curve" smooth="yes"/>
      <point x="212" y="892"/>
      <point x="189" y="915"/>
      <point x="157" y="915" type="curve" smooth="yes"/>
      <point x="119" y="915"/>
      <point x="84" y="882"/>
      <point x="84" y="843" type="curve" smooth="yes"/>
      <point x="84" y="812"/>
      <point x="107" y="789"/>
      <point x="139" y="789" type="curve" smooth="yes"/>
      <point x="177" y="789"/>
      <point x="212" y="822"/>
    </contour>
    <contour>
      <point x="383" y="861" type="curve" smooth="yes"/>
      <point x="383" y="892"/>
      <point x="359" y="915"/>
      <point x="327" y="915" type="curve" smooth="yes"/>
      <point x="290" y="915"/>
      <point x="254" y="881"/>
      <point x="254" y="843" type="curve" smooth="yes"/>
      <point x="254" y="813"/>
      <point x="278" y="789"/>
      <point x="309" y="789" type="curve" smooth="yes"/>
      <point x="347" y="789"/>
      <point x="383" y="822"/>
    </contour>
  </outline>
</glyph>
<glyph name="dieresisacute.case" format="2">
  <advance width="324"/>
  <anchor x="227" y="732" name="_top"/>
  <outline>
    <contour>
      <point x="296" y="1077" type="line"/>
      <point x="210" y="952" type="line"/>
      <point x="303" y="952" type="line"/>
      <point x="431" y="1077" type="line"/>
    </contour>
    <contour>
      <point x="222" y="861" type="curve" smooth="yes"/>
      <point x="222" y="892"/>
      <point x="198" y="915"/>
      <point x="166" y="915" type="curve" smooth="yes"/>
      <point x="128" y="915"/>
      <point x="94" y="882"/>
      <point x="94" y="843" type="curve" smooth="yes"/>
      <point x="94" y="812"/>
      <point x="117" y="789"/>
      <point x="149" y="789" type="curve" smooth="yes"/>
      <point x="187" y="789"/>
      <point x="222" y="822"/>
    </contour>
    <contour>
      <point x="393" y="861" type="curve" smooth="yes"/>
      <point x="393" y="891"/>
      <point x="368" y="915"/>
      <point x="336" y="915" type="curve" smooth="yes"/>
      <point x="299" y="915"/>
      <point x="264" y="881"/>
      <point x="264" y="843" type="curve" smooth="yes"/>
      <point x="264" y="813"/>
      <point x="288" y="789"/>
      <point x="319" y="789" type="curve" smooth="yes"/>
      <point x="357" y="789"/>
      <point x="393" y="822"/>
    </contour>
  </outline>
</glyph>
<glyph name="dieresisacute" format="2">
  <advance width="330"/>
  <anchor x="194" y="497" name="_top"/>
  <outline>
    <contour>
      <point x="274" y="878" type="line"/>
      <point x="188" y="753" type="line"/>
      <point x="281" y="753" type="line"/>
      <point x="409" y="878" type="line"/>
    </contour>
    <contour>
      <point x="193" y="660" type="curve" smooth="yes"/>
      <point x="193" y="691"/>
      <point x="170" y="715"/>
      <point x="138" y="715" type="curve" smooth="yes"/>
      <point x="100" y="715"/>
      <point x="66" y="682"/>
      <point x="66" y="643" type="curve" smooth="yes"/>
      <point x="66" y="612"/>
      <point x="89" y="589"/>
      <point x="121" y="589" type="curve" smooth="yes"/>
      <point x="159" y="589"/>
      <point x="193" y="621"/>
    </contour>
    <contour>
      <point x="364" y="659" type="curve" smooth="yes"/>
      <point x="364" y="691"/>
      <point x="341" y="715"/>
      <point x="308" y="715" type="curve" smooth="yes"/>
      <point x="271" y="715"/>
      <point x="236" y="681"/>
      <point x="236" y="643" type="curve" smooth="yes"/>
      <point x="236" y="613"/>
      <point x="260" y="589"/>
      <point x="291" y="589" type="curve" smooth="yes"/>
      <point x="328" y="589"/>
      <point x="364" y="621"/>
    </contour>
  </outline>
</glyph>
<glyph name="dieresisbelow" format="2">
  <advance width="301"/>
  <anchor x="115" y="0" name="bottom"/>
  <outline>
    <contour>
      <point x="75" y="-123" type="curve" smooth="yes"/>
      <point x="75" y="-92"/>
      <point x="52" y="-69"/>
      <point x="20" y="-69" type="curve" smooth="yes"/>
      <point x="-18" y="-69"/>
      <point x="-53" y="-102"/>
      <point x="-53" y="-141" type="curve" smooth="yes"/>
      <point x="-53" y="-172"/>
      <point x="-30" y="-195"/>
      <point x="2" y="-195" type="curve" smooth="yes"/>
      <point x="40" y="-195"/>
      <point x="75" y="-162"/>
    </contour>
    <contour>
      <point x="246" y="-123" type="curve" smooth="yes"/>
      <point x="246" y="-92"/>
      <point x="222" y="-69"/>
      <point x="190" y="-69" type="curve" smooth="yes"/>
      <point x="153" y="-69"/>
      <point x="117" y="-103"/>
      <point x="117" y="-141" type="curve" smooth="yes"/>
      <point x="117" y="-171"/>
      <point x="141" y="-195"/>
      <point x="172" y="-195" type="curve" smooth="yes"/>
      <point x="210" y="-195"/>
      <point x="246" y="-162"/>
    </contour>
  </outline>
</glyph>
<glyph name="dieresiscaron" format="2">
  <advance width="317"/>
  <anchor x="194" y="497" name="_top"/>
  <outline>
    <contour>
      <point x="242" y="840" type="line"/>
      <point x="192" y="904" type="line"/>
      <point x="104" y="904" type="line"/>
      <point x="183" y="759" type="line"/>
      <point x="281" y="759" type="line"/>
      <point x="397" y="904" type="line"/>
      <point x="311" y="904" type="line"/>
    </contour>
    <contour>
      <point x="194" y="661" type="curve" smooth="yes"/>
      <point x="194" y="692"/>
      <point x="171" y="715"/>
      <point x="139" y="715" type="curve" smooth="yes"/>
      <point x="101" y="715"/>
      <point x="66" y="682"/>
      <point x="66" y="643" type="curve" smooth="yes"/>
      <point x="66" y="612"/>
      <point x="89" y="589"/>
      <point x="121" y="589" type="curve" smooth="yes"/>
      <point x="159" y="589"/>
      <point x="194" y="622"/>
    </contour>
    <contour>
      <point x="365" y="661" type="curve" smooth="yes"/>
      <point x="365" y="692"/>
      <point x="341" y="715"/>
      <point x="309" y="715" type="curve" smooth="yes"/>
      <point x="272" y="715"/>
      <point x="236" y="681"/>
      <point x="236" y="643" type="curve" smooth="yes"/>
      <point x="236" y="613"/>
      <point x="260" y="589"/>
      <point x="291" y="589" type="curve" smooth="yes"/>
      <point x="329" y="589"/>
      <point x="365" y="622"/>
    </contour>
  </outline>
</glyph>
<glyph name="dieresisgrave" format="2">
  <advance width="332"/>
  <anchor x="208" y="497" name="_top"/>
  <outline>
    <contour>
      <point x="234" y="878" type="line"/>
      <point x="99" y="878" type="line"/>
      <point x="193" y="753" type="line"/>
      <point x="286" y="753" type="line"/>
    </contour>
    <contour>
      <point x="252" y="643" type="curve" smooth="yes"/>
      <point x="252" y="612"/>
      <point x="275" y="589"/>
      <point x="307" y="589" type="curve" smooth="yes"/>
      <point x="345" y="589"/>
      <point x="379" y="621"/>
      <point x="379" y="660" type="curve" smooth="yes"/>
      <point x="379" y="691"/>
      <point x="356" y="715"/>
      <point x="324" y="715" type="curve" smooth="yes"/>
      <point x="286" y="715"/>
      <point x="252" y="682"/>
    </contour>
    <contour>
      <point x="81" y="643" type="curve" smooth="yes"/>
      <point x="81" y="612"/>
      <point x="105" y="589"/>
      <point x="137" y="589" type="curve" smooth="yes"/>
      <point x="173" y="589"/>
      <point x="209" y="622"/>
      <point x="209" y="659" type="curve" smooth="yes"/>
      <point x="209" y="690"/>
      <point x="186" y="715"/>
      <point x="154" y="715" type="curve" smooth="yes"/>
      <point x="116" y="715"/>
      <point x="81" y="682"/>
    </contour>
  </outline>
</glyph>
<glyph name="dieresismacron.case" format="2">
  <advance width="317"/>
  <anchor x="227" y="732" name="_top"/>
  <outline>
    <contour>
      <point x="122" y="1029" type="line"/>
      <point x="111" y="955" type="line"/>
      <point x="406" y="955" type="line"/>
      <point x="417" y="1029" type="line"/>
    </contour>
    <contour>
      <point x="222" y="861" type="curve" smooth="yes"/>
      <point x="222" y="892"/>
      <point x="199" y="915"/>
      <point x="167" y="915" type="curve" smooth="yes"/>
      <point x="129" y="915"/>
      <point x="94" y="882"/>
      <point x="94" y="843" type="curve" smooth="yes"/>
      <point x="94" y="812"/>
      <point x="117" y="789"/>
      <point x="149" y="789" type="curve" smooth="yes"/>
      <point x="187" y="789"/>
      <point x="222" y="822"/>
    </contour>
    <contour>
      <point x="393" y="861" type="curve" smooth="yes"/>
      <point x="393" y="892"/>
      <point x="369" y="915"/>
      <point x="337" y="915" type="curve" smooth="yes"/>
      <point x="300" y="915"/>
      <point x="264" y="881"/>
      <point x="264" y="843" type="curve" smooth="yes"/>
      <point x="264" y="813"/>
      <point x="288" y="789"/>
      <point x="319" y="789" type="curve" smooth="yes"/>
      <point x="357" y="789"/>
      <point x="393" y="822"/>
    </contour>
  </outline>
</glyph>
<glyph name="dotaccentmacron.case" format="2">
  <advance width="316"/>
  <anchor x="226" y="732" name="_top"/>
  <outline>
    <contour>
      <point x="121" y="1029" type="line"/>
      <point x="110" y="955" type="line"/>
      <point x="405" y="955" type="line"/>
      <point x="416" y="1029" type="line"/>
    </contour>
    <contour>
      <point x="307" y="861" type="curve" smooth="yes"/>
      <point x="307" y="892"/>
      <point x="283" y="915"/>
      <point x="251" y="915" type="curve" smooth="yes"/>
      <point x="214" y="915"/>
      <point x="178" y="881"/>
      <point x="178" y="843" type="curve" smooth="yes"/>
      <point x="178" y="813"/>
      <point x="202" y="789"/>
      <point x="233" y="789" type="curve" smooth="yes"/>
      <point x="271" y="789"/>
      <point x="307" y="822"/>
    </contour>
  </outline>
</glyph>
<glyph name="dotaccentmacron" format="2">
  <advance width="316"/>
  <anchor x="193" y="497" name="_top"/>
  <outline>
    <contour>
      <point x="93" y="829" type="line"/>
      <point x="82" y="755" type="line"/>
      <point x="377" y="755" type="line"/>
      <point x="388" y="829" type="line"/>
    </contour>
    <contour>
      <point x="279" y="661" type="curve" smooth="yes"/>
      <point x="279" y="692"/>
      <point x="255" y="715"/>
      <point x="223" y="715" type="curve" smooth="yes"/>
      <point x="186" y="715"/>
      <point x="150" y="681"/>
      <point x="150" y="643" type="curve" smooth="yes"/>
      <point x="150" y="613"/>
      <point x="174" y="589"/>
      <point x="205" y="589" type="curve" smooth="yes"/>
      <point x="243" y="589"/>
      <point x="279" y="622"/>
    </contour>
  </outline>
</glyph>
<glyph name="f_f_l" format="2">
  <advance width="828"/>
  <outline>
    <contour>
      <point x="-104" y="-149" type="curve"/>
      <point x="-120" y="-216" type="line"/>
      <point x="22" y="-260"/>
      <point x="127" y="-204"/>
      <point x="149" y="-47" type="curve" smooth="yes"/>
      <point x="211" y="414" type="line"/>
      <point x="329" y="414" type="line"/>
      <point x="340" y="497" type="line"/>
      <point x="222" y="497" type="line"/>
      <point x="232" y="567"/>
      <point x="244" y="694"/>
      <point x="318" y="694" type="curve" smooth="yes"/>
      <point x="351" y="694"/>
      <point x="373" y="680"/>
      <point x="402" y="654" type="curve"/>
      <point x="451" y="733" type="line"/>
      <point x="413" y="759"/>
      <point x="366" y="776"/>
      <point x="317" y="776" type="curve" smooth="yes"/>
      <point x="175" y="776"/>
      <point x="141" y="660"/>
      <point x="117" y="545" type="curve" smooth="yes"/>
      <point x="107" y="497"/>
      <point x="62" y="497"/>
      <point x="28" y="497" type="curve"/>
      <point x="18" y="414" type="line"/>
      <point x="97" y="414" type="line"/>
      <point x="36" y="-35" type="line" smooth="yes"/>
      <point x="24" y="-121"/>
      <point x="-10" y="-174"/>
    </contour>
    <contour>
      <point x="195" y="-149" type="curve"/>
      <point x="179" y="-216" type="line"/>
      <point x="321" y="-260"/>
      <point x="426" y="-203"/>
      <point x="448" y="-47" type="curve" smooth="yes"/>
      <point x="510" y="414" type="line"/>
      <point x="628" y="414" type="line"/>
      <point x="639" y="497" type="line"/>
      <point x="521" y="497" type="line"/>
      <point x="533" y="572"/>
      <point x="553" y="694"/>
      <point x="653" y="694" type="curve" smooth="yes"/>
      <point x="691" y="694"/>
      <point x="711" y="671"/>
      <point x="711" y="633" type="curve" smooth="yes"/>
      <point x="711" y="616"/>
      <point x="699" y="531"/>
      <point x="628" y="0" type="curve"/>
      <point x="755" y="0" type="line"/>
      <point x="752" y="54" type="line"/>
      <point x="848" y="769" type="line"/>
      <point x="751" y="745" type="line"/>
      <point x="729" y="761"/>
      <point x="679" y="776"/>
      <point x="650" y="776" type="curve" smooth="yes"/>
      <point x="484" y="776"/>
      <point x="451" y="660"/>
      <point x="416" y="545" type="curve" smooth="yes"/>
      <point x="401" y="497"/>
      <point x="361" y="497"/>
      <point x="327" y="497" type="curve"/>
      <point x="317" y="414" type="line"/>
      <point x="396" y="414" type="line"/>
      <point x="335" y="-35" type="line" smooth="yes"/>
      <point x="322" y="-127"/>
      <point x="284" y="-174"/>
    </contour>
  </outline>
</glyph>
<glyph name="five.lf" format="2">
  <advance width="466"/>
  <outline>
    <contour>
      <point x="187" y="698" type="line"/>
      <point x="73" y="431" type="line"/>
      <point x="235" y="412"/>
      <point x="276" y="324"/>
      <point x="264" y="238" type="curve" smooth="yes"/>
      <point x="248" y="125"/>
      <point x="162" y="52"/>
      <point x="40" y="52" type="curve" smooth="yes"/>
      <point x="23" y="52"/>
      <point x="4" y="54"/>
      <point x="-14" y="57" type="curve"/>
      <point x="-36" y="0" type="line"/>
      <point x="-4" y="-8"/>
      <point x="28" y="-11"/>
      <point x="60" y="-11" type="curve" smooth="yes"/>
      <point x="226" y="-11"/>
      <point x="374" y="88"/>
      <point x="396" y="246" type="curve" smooth="yes"/>
      <point x="411" y="349"/>
      <point x="360" y="452"/>
      <point x="184" y="490" type="curve"/>
      <point x="224" y="577" type="line"/>
      <point x="468" y="577" type="line"/>
      <point x="520" y="698" type="line"/>
    </contour>
  </outline>
</glyph>
<glyph name="hook.case" format="2">
  <advance width="277"/>
  <anchor x="184" y="732" name="_top"/>
  <outline>
    <contour>
      <point x="168" y="779" type="line"/>
      <point x="218" y="779" type="line"/>
      <point x="233" y="825" type="line"/>
      <point x="291" y="827"/>
      <point x="337" y="868"/>
      <point x="337" y="922" type="curve" smooth="yes"/>
      <point x="337" y="967"/>
      <point x="294" y="990"/>
      <point x="242" y="990" type="curve" smooth="yes"/>
      <point x="207" y="990"/>
      <point x="168" y="980"/>
      <point x="136" y="960" type="curve"/>
      <point x="154" y="908" type="line"/>
      <point x="173" y="917"/>
      <point x="194" y="923"/>
      <point x="211" y="923" type="curve" smooth="yes"/>
      <point x="230" y="923"/>
      <point x="243" y="916"/>
      <point x="243" y="900" type="curve" smooth="yes"/>
      <point x="243" y="872"/>
      <point x="221" y="864"/>
      <point x="199" y="864" type="curve" smooth="yes"/>
      <point x="188" y="864"/>
      <point x="176" y="866"/>
      <point x="167" y="869" type="curve"/>
    </contour>
  </outline>
</glyph>
<glyph name="horn.case" format="2">
  <advance width="331"/>
  <anchor x="36" y="732" name="_topright"/>
  <outline>
    <contour>
      <point x="120" y="723" type="curve"/>
      <point x="111" y="658" type="line"/>
      <point x="311" y="622"/>
      <point x="385" y="763"/>
      <point x="388" y="863" type="curve"/>
      <point x="272" y="863" type="line"/>
      <point x="272" y="778"/>
      <point x="226" y="694"/>
    </contour>
  </outline>
</glyph>
<glyph name="horn" format="2">
  <advance width="248"/>
  <anchor x="3" y="497" name="_topright"/>
  <outline>
    <contour>
      <point x="60" y="494" type="curve"/>
      <point x="51" y="432" type="line"/>
      <point x="213" y="396"/>
      <point x="284" y="517"/>
      <point x="290" y="617" type="curve"/>
      <point x="174" y="617" type="line"/>
      <point x="175" y="532"/>
      <point x="131" y="464"/>
    </contour>
  </outline>
</glyph>
<glyph name="ijacute" format="2">
  <advance width="456"/>
  <outline>
    <contour>
      <point x="151" y="0" type="line"/>
      <point x="148" y="55" type="line"/>
      <point x="207" y="497" type="line"/>
      <point x="83" y="497" type="line"/>
      <point x="86" y="443" type="line"/>
      <point x="27" y="0" type="line"/>
    </contour>
    <contour>
      <point x="437" y="497" type="line"/>
      <point x="311" y="497" type="line"/>
      <point x="315" y="444" type="line"/>
      <point x="260" y="39" type="line" smooth="yes"/>
      <point x="250" y="-37"/>
      <point x="229" y="-128"/>
      <point x="147" y="-169" type="curve"/>
      <point x="161" y="-224" type="line"/>
      <point x="319" y="-206"/>
      <point x="360" y="-64"/>
      <point x="378" y="65" type="curve" smooth="yes"/>
    </contour>
    <contour>
      <point x="234" y="735" type="line"/>
      <point x="101" y="570" type="line"/>
      <point x="204" y="570" type="line"/>
      <point x="379" y="735" type="line"/>
    </contour>
    <contour>
      <point x="468" y="735" type="line"/>
      <point x="335" y="570" type="line"/>
      <point x="438" y="570" type="line"/>
      <point x="613" y="735" type="line"/>
    </contour>
  </outline>
</glyph>
<glyph name="macron.case" format="2">
  <advance width="296"/>
  <anchor x="217" y="732" name="_top"/>
  <outline>
    <contour>
      <point x="91" y="889" type="line"/>
      <point x="81" y="815" type="line"/>
      <point x="376" y="815" type="line"/>
      <point x="386" y="889" type="line"/>
    </contour>
  </outline>
</glyph>
<glyph name="macronbelow" format="2">
  <advance width="295"/>
  <anchor x="113" y="0" name="bottom"/>
  <outline>
    <contour>
      <point x="-51" y="-111" type="line"/>
      <point x="-61" y="-185" type="line"/>
      <point x="234" y="-185" type="line"/>
      <point x="244" y="-111" type="line"/>
    </contour>
  </outline>
</glyph>
<glyph name="nine.lf" format="2">
  <advance width="596"/>
  <outline>
    <contour>
      <point x="370" y="711" type="curve" smooth="yes"/>
      <point x="214" y="711"/>
      <point x="83" y="587"/>
      <point x="83" y="439" type="curve" smooth="yes"/>
      <point x="83" y="352"/>
      <point x="136" y="278"/>
      <point x="257" y="278" type="curve" smooth="yes"/>
      <point x="303" y="278"/>
      <point x="373" y="295"/>
      <point x="433" y="336" type="curve"/>
      <point x="444" y="411" type="line"/>
      <point x="399" y="378"/>
      <point x="347" y="363"/>
      <point x="312" y="363" type="curve" smooth="yes"/>
      <point x="246" y="363"/>
      <point x="217" y="409"/>
      <point x="217" y="462" type="curve" smooth="yes"/>
      <point x="217" y="538"/>
      <point x="269" y="628"/>
      <point x="354" y="628" type="curve" smooth="yes"/>
      <point x="419" y="628"/>
      <point x="439" y="573"/>
      <point x="439" y="497" type="curve" smooth="yes"/>
      <point x="439" y="277"/>
      <point x="345" y="58"/>
      <point x="166" y="58" type="curve" smooth="yes"/>
      <point x="145" y="58"/>
      <point x="111" y="60"/>
      <point x="87" y="65" type="curve"/>
      <point x="62" y="0" type="line"/>
      <point x="97" y="-8"/>
      <point x="140" y="-12"/>
      <point x="171" y="-12" type="curve" smooth="yes"/>
      <point x="408" y="-12"/>
      <point x="569" y="224"/>
      <point x="569" y="481" type="curve" smooth="yes"/>
      <point x="569" y="608"/>
      <point x="518" y="711"/>
    </contour>
  </outline>
</glyph>
<glyph name="one.lf" format="2">
  <advance width="460"/>
  <outline>
    <contour>
      <point x="43" y="99" type="line"/>
      <point x="29" y="0" type="line"/>
      <point x="393" y="0" type="line"/>
      <point x="407" y="99" type="line"/>
      <point x="288" y="99" type="line"/>
      <point x="372" y="698" type="line"/>
      <point x="294" y="698" type="line"/>
      <point x="94" y="613" type="line"/>
      <point x="106" y="549" type="line"/>
      <point x="233" y="572" type="line"/>
      <point x="167" y="99" type="line"/>
    </contour>
  </outline>
</glyph>
<glyph name="periodcentered.loclCAT.case" format="2">
  <advance width="293"/>
  <anchor x="-42" y="341" name="_center"/>
  <outline>
    <contour>
      <point x="285" y="369" type="curve" smooth="yes"/>
      <point x="285" y="405"/>
      <point x="257" y="433"/>
      <point x="219" y="433" type="curve" smooth="yes"/>
      <point x="175" y="433"/>
      <point x="132" y="393"/>
      <point x="132" y="346" type="curve" smooth="yes"/>
      <point x="132" y="310"/>
      <point x="160" y="282"/>
      <point x="198" y="282" type="curve" smooth="yes"/>
      <point x="242" y="282"/>
      <point x="285" y="322"/>
    </contour>
  </outline>
</glyph>
<glyph name="ring.case" format="2">
  <advance width="283"/>
  <anchor x="210" y="732" name="_top"/>
  <outline>
    <contour>
      <point x="246" y="1004" type="curve" smooth="yes"/>
      <point x="182" y="1004"/>
      <point x="125" y="949"/>
      <point x="125" y="884" type="curve" smooth="yes"/>
      <point x="125" y="832"/>
      <point x="166" y="790"/>
      <point x="220" y="790" type="curve" smooth="yes"/>
      <point x="284" y="790"/>
      <point x="342" y="844"/>
      <point x="342" y="909" type="curve" smooth="yes"/>
      <point x="342" y="961"/>
      <point x="300" y="1004"/>
    </contour>
    <contour>
      <point x="236" y="937" type="curve" smooth="yes"/>
      <point x="257" y="937"/>
      <point x="273" y="920"/>
      <point x="273" y="900" type="curve" smooth="yes"/>
      <point x="273" y="874"/>
      <point x="253" y="856"/>
      <point x="228" y="856" type="curve" smooth="yes"/>
      <point x="207" y="856"/>
      <point x="192" y="872"/>
      <point x="192" y="892" type="curve" smooth="yes"/>
      <point x="192" y="918"/>
      <point x="211" y="937"/>
    </contour>
  </outline>
</glyph>
<glyph name="ringacute" format="2">
  <advance width="283"/>
  <anchor x="176" y="497" name="_top"/>
  <outline>
    <contour>
      <point x="291" y="963" type="line"/>
      <point x="181" y="818" type="line"/>
      <point x="256" y="818" type="line"/>
      <point x="408" y="963" type="line"/>
    </contour>
    <contour>
      <point x="212" y="769" type="curve" smooth="yes"/>
      <point x="148" y="769"/>
      <point x="91" y="714"/>
      <point x="91" y="649" type="curve" smooth="yes"/>
      <point x="91" y="597"/>
      <point x="132" y="555"/>
      <point x="186" y="555" type="curve" smooth="yes"/>
      <point x="250" y="555"/>
      <point x="308" y="609"/>
      <point x="308" y="674" type="curve" smooth="yes"/>
      <point x="308" y="726"/>
      <point x="266" y="769"/>
    </contour>
    <contour>
      <point x="203" y="702" type="curve" smooth="yes"/>
      <point x="224" y="702"/>
      <point x="239" y="686"/>
      <point x="239" y="666" type="curve" smooth="yes"/>
      <point x="239" y="640"/>
      <point x="218" y="621"/>
      <point x="193" y="621" type="curve" smooth="yes"/>
      <point x="172" y="621"/>
      <point x="158" y="636"/>
      <point x="158" y="656" type="curve" smooth="yes"/>
      <point x="158" y="682"/>
      <point x="178" y="702"/>
    </contour>
  </outline>
</glyph>
<glyph name="slashlongcomb.case" format="2">
  <anchor x="374" y="361" name="_center"/>
  <outline>
    <contour>
      <point x="90" y="-56" type="line"/>
      <point x="723" y="744" type="line"/>
      <point x="663" y="792" type="line"/>
      <point x="31" y="-9" type="line"/>
    </contour>
  </outline>
</glyph>
<glyph name="tilde.case" format="2">
  <advance width="358"/>
  <anchor x="249" y="732" name="_top"/>
  <outline>
    <contour>
      <point x="443" y="905" type="curve"/>
      <point x="379" y="905" type="line"/>
      <point x="375" y="885"/>
      <point x="350" y="875"/>
      <point x="333" y="875" type="curve" smooth="yes"/>
      <point x="295" y="875"/>
      <point x="264" y="915"/>
      <point x="209" y="915" type="curve" smooth="yes"/>
      <point x="141" y="915"/>
      <point x="95" y="862"/>
      <point x="86" y="798" type="curve"/>
      <point x="151" y="798" type="line"/>
      <point x="154" y="818"/>
      <point x="179" y="828"/>
      <point x="196" y="828" type="curve" smooth="yes"/>
      <point x="234" y="828"/>
      <point x="265" y="788"/>
      <point x="320" y="788" type="curve" smooth="yes"/>
      <point x="388" y="788"/>
      <point x="434" y="841"/>
    </contour>
  </outline>
</glyph>
<glyph name="tildemacron.case" format="2">
  <advance width="358"/>
  <anchor x="249" y="732" name="_top"/>
  <outline>
    <contour>
      <point x="443" y="906" type="curve"/>
      <point x="379" y="906" type="line"/>
      <point x="375" y="886"/>
      <point x="350" y="876"/>
      <point x="333" y="876" type="curve" smooth="yes"/>
      <point x="295" y="876"/>
      <point x="264" y="916"/>
      <point x="209" y="916" type="curve" smooth="yes"/>
      <point x="141" y="916"/>
      <point x="95" y="863"/>
      <point x="86" y="799" type="curve"/>
      <point x="151" y="799" type="line"/>
      <point x="154" y="819"/>
      <point x="179" y="829"/>
      <point x="196" y="829" type="curve" smooth="yes"/>
      <point x="234" y="829"/>
      <point x="265" y="789"/>
      <point x="320" y="789" type="curve" smooth="yes"/>
      <point x="388" y="789"/>
      <point x="434" y="842"/>
    </contour>
    <contour>
      <point x="132" y="1030" type="line"/>
      <point x="122" y="956" type="line"/>
      <point x="437" y="956" type="line"/>
      <point x="447" y="1030" type="line"/>
    </contour>
  </outline>
</glyph>
<glyph name="zero.tf.zero" format="2">
  <advance width="600"/>
  <outline>
    <contour>
      <point x="113" y="133" type="line"/>
      <point x="171" y="75" type="line"/>
      <point x="496" y="580" type="line"/>
      <point x="438" y="637" type="line"/>
    </contour>
    <component base="zero.lf" xOffset="-1"/>
  </outline>
</glyph>
<glyph name="zero.tosf.zero" format="2">
  <advance width="600"/>
  <outline>
    <contour>
      <point x="152" y="91" type="line"/>
      <point x="214" y="48" type="line"/>
      <point x="436" y="406" type="line"/>
      <point x="373" y="448" type="line"/>
    </contour>
    <component base="zero" xOffset="10"/>
  </outline>
</glyph>
